<?xml version="1.0" encoding="utf-8"?>
<!-- Generator: Adobe Illustrator 14.0.0, SVG Export Plug-In . SVG Version: 6.00 Build 43363)  -->
<!DOCTYPE svg PUBLIC "-//W3C//DTD SVG 1.1//EN" "http://www.w3.org/Graphics/SVG/1.1/DTD/svg11.dtd">
<svg version="1.1" id="Layer_1" xmlns="http://www.w3.org/2000/svg" xmlns:xlink="http://www.w3.org/1999/xlink" x="0px" y="0px"
	 width="20px" height="20px" viewBox="0 0 20 20" enable-background="new 0 0 20 20" xml:space="preserve">
<path d="M10.382,1.384C10.271,1.297,10.135,1.25,9.995,1.25S9.717,1.297,9.606,1.384L0.625,8.387L1.402,9.37L2.5,8.513v7.737
	c0,0.332,0.132,0.648,0.367,0.883S3.418,17.5,3.75,17.5h12.5c0.332,0,0.648-0.133,0.883-0.367S17.5,16.582,17.5,16.25V8.519
	l1.098,0.856l0.777-0.982L10.382,1.384z M11.25,16.25h-2.5v-5h2.5V16.25z M12.5,16.25v-5c0-0.332-0.133-0.649-0.367-0.883
	C11.899,10.132,11.582,10,11.25,10h-2.5c-0.332,0-0.649,0.132-0.883,0.367C7.632,10.601,7.5,10.918,7.5,11.25v5H3.75V7.539L10,2.67
	l6.25,4.875v8.705H12.5z"/>
</svg>
