<svg width="16" height="16" viewBox="0 0 16 16" fill="none" xmlns="http://www.w3.org/2000/svg">
<g clip-path="url(#clip0_295_1697)">
<path fill-rule="evenodd" clip-rule="evenodd" d="M7.99997 9.06101C8.56558 9.06101 9.10804 8.8364 9.50809 8.43655C9.90814 8.0367 10.133 7.49435 10.1333 6.92874C10.1333 6.36295 9.90854 5.82033 9.50847 5.42025C9.10839 5.02017 8.56577 4.79541 7.99997 4.79541C7.43418 4.79541 6.89155 5.02017 6.49148 5.42025C6.0914 5.82033 5.86664 6.36295 5.86664 6.92874C5.86692 7.49435 6.09181 8.0367 6.49185 8.43655C6.8919 8.8364 7.43436 9.06101 7.99997 9.06101Z" stroke="white" stroke-width="1.5" stroke-linecap="square"/>
<path fill-rule="evenodd" clip-rule="evenodd" d="M14.4 6.92894C14.4 12.2591 9.06664 15.4569 7.99998 15.4569C6.93331 15.4569 1.59998 12.2591 1.59998 6.92894C1.60082 5.2322 2.27552 3.60527 3.47569 2.4059C4.67586 1.20653 6.30324 0.53292 7.99998 0.533203C11.5338 0.533203 14.4 3.3972 14.4 6.92894Z" stroke="white" stroke-width="1.5" stroke-linecap="square"/>
</g>
<defs>
<clipPath id="clip0_295_1697">
<rect width="16" height="16" fill="white"/>
</clipPath>
</defs>
</svg>
