<svg width="74" height="74" viewBox="0 0 74 74" fill="none" xmlns="http://www.w3.org/2000/svg">
<circle cx="37" cy="37" r="36" stroke="white" stroke-width="2"/>
<path d="M48.1668 35.1186L32.1554 25.3248C31.8196 25.1201 31.4355 25.0082 31.0423 25.0004C30.6491 24.9927 30.2609 25.0894 29.9173 25.2807C29.5737 25.4719 29.2871 25.751 29.0865 26.0893C28.886 26.4276 28.7788 26.813 28.7759 27.2062V46.7938C28.7788 47.187 28.886 47.5724 29.0865 47.9107C29.2871 48.249 29.5737 48.5281 29.9173 48.7193C30.2609 48.9106 30.6491 49.0073 31.0423 48.9996C31.4355 48.9918 31.8196 48.8799 32.1554 48.6752L48.1668 38.8814C48.4896 38.6849 48.7565 38.4086 48.9416 38.0791C49.1268 37.7496 49.2241 37.378 49.2241 37C49.2241 36.622 49.1268 36.2504 48.9416 35.9209C48.7565 35.5914 48.4896 35.3151 48.1668 35.1186ZM31.443 45.9847V28.0153L46.1298 37L31.443 45.9847Z" fill="white"/>
</svg>
