<?xml version="1.0" encoding="utf-8"?>
<!-- Generator: Adobe Illustrator 14.0.0, SVG Export Plug-In . SVG Version: 6.00 Build 43363)  -->
<!DOCTYPE svg PUBLIC "-//W3C//DTD SVG 1.1//EN" "http://www.w3.org/Graphics/SVG/1.1/DTD/svg11.dtd">
<svg version="1.1" id="Layer_1" xmlns="http://www.w3.org/2000/svg" xmlns:xlink="http://www.w3.org/1999/xlink" x="0px" y="0px"
	 width="10px" height="14px" viewBox="0 0 10 14" enable-background="new 0 0 10 14" xml:space="preserve">
<path fill="#474747" d="M1,0h1c0.552,0,1,0.448,1,1v12c0,0.553-0.448,1-1,1H1c-0.552,0-1-0.447-1-1V1C0,0.448,0.448,0,1,0z"/>
<path fill="#474747" d="M8,0h1c0.553,0,1,0.448,1,1v12c0,0.553-0.447,1-1,1H8c-0.553,0-1-0.447-1-1V1C7,0.448,7.447,0,8,0z"/>
</svg>
