<svg width="101" height="75" viewBox="0 0 101 75" fill="none" xmlns="http://www.w3.org/2000/svg">
<path fill-rule="evenodd" clip-rule="evenodd" d="M78.5478 0.627197L93.323 8.8356L90.9951 10.6979C84.1057 16.2094 77.607 24.9748 75.0258 32.9406C76.1536 32.6716 77.3641 32.4768 78.3016 32.4768C84.0391 32.4768 89.5381 34.3525 93.6289 37.9888C97.7492 41.6512 100.329 47.0047 100.329 53.6866C100.329 66.3955 89.8655 74.8964 78.3016 74.8964C72.2857 74.8964 66.3246 72.6623 61.8753 67.9314C57.4218 63.1961 54.6394 56.1297 54.6394 46.7383C54.6394 25.0631 69.0184 7.77431 77.5103 1.40536L78.5478 0.627197ZM74.4008 35.179C73.4866 35.4545 72.6636 35.7831 72.1708 36.1116C72.3126 35.2961 72.5006 34.4683 72.7309 33.6322C74.9777 25.4776 81.2578 16.5335 88.1057 10.513C88.6494 10.035 89.1966 9.57542 89.7457 9.13615L78.7103 3.00536C70.5359 9.13615 56.6394 25.8936 56.6394 46.7383C56.6394 64.722 67.2661 72.8964 78.3016 72.8964C88.9283 72.8964 98.3288 65.1307 98.3288 53.6866C98.3288 41.425 88.9283 34.4768 78.3016 34.4768C77.3238 34.4768 75.7612 34.7691 74.4008 35.179ZM24.5969 0.627197L39.372 8.8356L37.0441 10.6979C30.1547 16.2094 23.656 24.9748 21.0749 32.9406C22.2026 32.6716 23.4131 32.4768 24.3506 32.4768C30.0882 32.4768 35.5872 34.3525 39.678 37.9888C43.7983 41.6512 46.3778 47.0047 46.3778 53.6866C46.3778 66.3955 35.9145 74.8964 24.3506 74.8964C18.3347 74.8964 12.3736 72.6623 7.92435 67.9314C3.47088 63.1961 0.688477 56.1297 0.688477 46.7383C0.688477 25.0631 15.0674 7.77431 23.5593 1.40536L24.5969 0.627197ZM20.4499 35.179C19.5356 35.4545 18.7126 35.7831 18.2198 36.1116C18.3616 35.2961 18.5496 34.4683 18.78 33.6322C21.0268 25.4776 27.3069 16.5335 34.1547 10.513C34.6984 10.035 35.2457 9.57542 35.7947 9.13615L24.7593 3.00536C16.5849 9.13615 2.68848 25.8936 2.68848 46.7383C2.68848 64.722 13.3152 72.8964 24.3506 72.8964C34.9773 72.8964 44.3778 65.1307 44.3778 53.6866C44.3778 41.425 34.9773 34.4768 24.3506 34.4768C23.3728 34.4768 21.8103 34.7691 20.4499 35.179Z" fill="#B72727"/>
</svg>
