<svg width="101" height="75" viewBox="0 0 101 75" fill="none" xmlns="http://www.w3.org/2000/svg">
<path fill-rule="evenodd" clip-rule="evenodd" d="M76.421 74.2745L61.6459 66.0661L63.9738 64.2038C70.8632 58.6923 77.3618 49.9269 79.943 41.9611C78.8153 42.2302 77.6047 42.425 76.6673 42.425C70.9297 42.425 65.4307 40.5493 61.3399 36.913C57.2196 33.2505 54.64 27.8971 54.64 21.2152C54.64 8.50622 65.1034 0.00537109 76.6673 0.00537109C82.6832 0.00537109 88.6443 2.23946 93.0935 6.97033C97.547 11.7057 100.329 18.772 100.329 28.1634C100.329 49.8386 85.9505 67.1274 77.4586 73.4964L76.421 74.2745ZM80.568 39.7227C79.2076 40.1326 77.6451 40.425 76.6673 40.425C66.0406 40.425 56.64 33.4768 56.64 21.2152C56.64 9.77105 66.0406 2.00536 76.6673 2.00536C87.7027 2.00536 98.3294 10.1798 98.3294 28.1634C98.3294 49.0081 84.433 65.7656 76.2586 71.8964L65.2231 65.7656C65.7722 65.3263 66.3195 64.8668 66.8631 64.3888C73.711 58.3682 79.9911 49.4241 82.2379 41.2696C82.4683 40.4334 82.6562 39.6056 82.7981 38.7901C82.3052 39.1187 81.4823 39.4472 80.568 39.7227ZM22.4701 74.2745L7.69494 66.0661L10.0228 64.2038C16.9122 58.6923 23.4109 49.9269 25.9921 41.9611C24.8643 42.2302 23.6538 42.425 22.7163 42.425C16.9788 42.425 11.4798 40.5493 7.38897 36.913C3.26867 33.2505 0.689087 27.8971 0.689087 21.2152C0.689087 8.50622 11.1524 0.00537109 22.7163 0.00537109C28.7322 0.00537109 34.6933 2.23946 39.1426 6.97033C43.5961 11.7057 46.3785 18.772 46.3785 28.1634C46.3785 49.8386 31.9995 67.1274 23.5076 73.4964L22.4701 74.2745ZM26.6171 39.7227C25.2566 40.1326 23.6941 40.425 22.7163 40.425C12.0896 40.425 2.68909 33.4768 2.68909 21.2152C2.68909 9.77105 12.0896 2.00536 22.7163 2.00536C33.7518 2.00536 44.3785 10.1798 44.3785 28.1634C44.3785 49.0081 30.482 65.7656 22.3076 71.8964L11.2722 65.7656C11.8213 65.3263 12.3685 64.8668 12.9122 64.3888C19.76 58.3682 26.0402 49.4241 28.287 41.2696C28.5173 40.4334 28.7053 39.6056 28.8471 38.7901C28.3543 39.1187 27.5313 39.4472 26.6171 39.7227Z" fill="#711B1B"/>
</svg>
