<svg width="22" height="22" viewBox="0 0 22 22" fill="none" xmlns="http://www.w3.org/2000/svg">
<path fill-rule="evenodd" clip-rule="evenodd" d="M9.78528 2.20691e-08C8.22479 0.000132966 6.68696 0.373443 5.30008 1.08878C3.91321 1.80413 2.71751 2.84076 1.81275 4.11219C0.907986 5.38362 0.320394 6.85298 0.0989954 8.39769C-0.122403 9.94239 0.0288129 11.5176 0.540027 12.992C1.05124 14.4664 1.90763 15.7972 3.03774 16.8732C4.16785 17.9493 5.53892 18.7396 7.03655 19.178C8.53418 19.6165 10.1149 19.6904 11.647 19.3937C13.179 19.0969 14.6178 18.4381 15.8435 17.4722L20.048 21.6768C20.2652 21.8865 20.556 22.0026 20.8579 22C21.1597 21.9973 21.4485 21.8763 21.662 21.6628C21.8754 21.4493 21.9965 21.1606 21.9991 20.8587C22.0017 20.5568 21.8857 20.266 21.676 20.0489L17.4714 15.8443C18.6089 14.4013 19.3171 12.6671 19.5151 10.8404C19.713 9.01364 19.3927 7.16806 18.5907 5.51487C17.7888 3.86168 16.5376 2.46766 14.9803 1.49236C13.4231 0.51706 11.6227 -0.000123355 9.78528 2.20691e-08ZM2.30178 9.78611C2.30178 7.80137 3.09022 5.89791 4.49365 4.49448C5.89708 3.09105 7.80053 2.30261 9.78528 2.30261C11.77 2.30261 13.6735 3.09105 15.0769 4.49448C16.4803 5.89791 17.2688 7.80137 17.2688 9.78611C17.2688 11.7709 16.4803 13.6743 15.0769 15.0777C13.6735 16.4812 11.77 17.2696 9.78528 17.2696C7.80053 17.2696 5.89708 16.4812 4.49365 15.0777C3.09022 13.6743 2.30178 11.7709 2.30178 9.78611Z" fill="black"/>
</svg>
