<?xml version="1.0" encoding="utf-8"?>
<!-- Generator: Adobe Illustrator 14.0.0, SVG Export Plug-In . SVG Version: 6.00 Build 43363)  -->
<!DOCTYPE svg PUBLIC "-//W3C//DTD SVG 1.1//EN" "http://www.w3.org/Graphics/SVG/1.1/DTD/svg11.dtd">
<svg version="1.1" id="Layer_1" xmlns="http://www.w3.org/2000/svg" xmlns:xlink="http://www.w3.org/1999/xlink" x="0px" y="0px"
	 width="12px" height="15px" viewBox="0 0 12 15" enable-background="new 0 0 12 15" xml:space="preserve">
<path fill="#474747" d="M0.5,1.815v11.733c0,0.895,0.943,1.438,1.67,0.951l8.826-5.867c0.154-0.102,0.281-0.242,0.369-0.41
	S11.5,7.867,11.5,7.676s-0.047-0.379-0.135-0.546c-0.088-0.167-0.215-0.309-0.369-0.411L2.17,0.864
	C2.006,0.753,1.817,0.691,1.623,0.684c-0.195-0.007-0.388,0.04-0.559,0.137C0.893,0.918,0.75,1.062,0.651,1.237
	C0.552,1.412,0.5,1.612,0.5,1.815z"/>
</svg>
