<svg width="12" height="15" viewBox="0 0 12 15" fill="none" xmlns="http://www.w3.org/2000/svg">
<path d="M0.500002 1.81542V13.5487C0.500002 14.4434 1.4433 14.9871 2.16975 14.5001L10.9956 8.63342C11.1501 8.53127 11.2774 8.38996 11.3656 8.22264C11.4538 8.05532 11.5 7.86741 11.5 7.67641C11.5 7.4854 11.4538 7.29749 11.3656 7.13017C11.2774 6.96285 11.1501 6.82154 10.9956 6.71939L2.16975 0.864075C2.00621 0.753588 1.81715 0.691254 1.62253 0.683651C1.4279 0.676048 1.23491 0.723456 1.06393 0.820875C0.892942 0.918294 0.7503 1.06211 0.651047 1.23716C0.551795 1.4122 0.499611 1.61198 0.500002 1.81542Z" fill="white"/>
</svg>
