<svg width="18" height="18" viewBox="0 0 18 18" fill="none" xmlns="http://www.w3.org/2000/svg">
<path d="M15.1112 7.74573L4.43691 1.21656C4.21305 1.08009 3.957 1.00546 3.69488 1.00029C3.43276 0.995114 3.17396 1.05958 2.94489 1.18711C2.71583 1.31463 2.5247 1.50065 2.39102 1.72618C2.25734 1.95171 2.18589 2.20867 2.18396 2.47083V15.5292C2.18589 15.7913 2.25734 16.0483 2.39102 16.2738C2.5247 16.4993 2.71583 16.6854 2.94489 16.8129C3.17396 16.9404 3.43276 17.0049 3.69488 16.9997C3.957 16.9945 4.21305 16.9199 4.43691 16.7834L15.1112 10.2543C15.3264 10.1233 15.5043 9.93905 15.6278 9.71938C15.7512 9.49971 15.816 9.25198 15.816 9C15.816 8.74802 15.7512 8.50028 15.6278 8.28062C15.5043 8.06095 15.3264 7.87675 15.1112 7.74573ZM3.96202 14.9898V3.01017L13.7532 9L3.96202 14.9898Z" fill="#B72727"/>
</svg>
