<svg width="184" height="232" viewBox="0 0 184 232" fill="none" xmlns="http://www.w3.org/2000/svg">
<path d="M172.273 0V169.923H0.0439453V180.988H183.489V0H172.273Z" fill="#474C55"/>
<path d="M20.2337 212.243H8.80897V196.471H0.501953V231.999H8.80897V217.941H20.2337V231.999H28.5408V196.471H20.2337V212.243Z" fill="#474C55"/>
<path d="M86.3345 231.999H94.6415V217.466H107.301V231.999H115.608V196.471H86.3345V231.999ZM107.301 202.169V211.768H94.6415V202.169H107.301Z" fill="#474C55"/>
<path d="M120.65 231.999H128.957V217.466H141.616V231.999H149.923V196.471H120.65V231.999ZM141.616 202.169V211.768H128.957V202.169H141.616Z" fill="#474C55"/>
<path d="M183.026 202.169V196.471H156.536V231.999H183.026V226.302H164.843V202.169H183.026Z" fill="#474C55"/>
<path d="M76.7919 196.471H68.4849V231.999H76.7919V196.471Z" fill="#474C55"/>
<path d="M65.263 196.471H55.282L44.6524 209.291V196.471H35.5293V231.999H44.6524V220.769L46.0334 219.179L55.554 231.999H65.2839L51.3691 213.048L65.263 196.471Z" fill="#474C55"/>
<path d="M96.9847 100.331H83.0908V110.757H96.9847V100.331Z" fill="#8D0034"/>
<path d="M96.9847 81.0906H83.0908V90.3598H96.9847V81.0906Z" fill="#8D0034"/>
<path d="M10.5041 136.954V17.6302H84.2419V9.68215H95.7923V17.6302H161.976V0H0V136.954H10.5041Z" fill="#8D0034"/>
<path d="M96.9847 64.2241H83.0908V71.1193H96.9847V64.2241Z" fill="#8D0034"/>
<path d="M20.6106 27.6016V136.954V147.028H0V159.807H161.976V27.6016H20.6106ZM57.1029 146.967H30.9473V136.995H46.9755V126.054H57.082V146.987L57.1029 146.967ZM83.0911 146.967H72.9846V126.033H83.0911V146.967ZM107.091 146.967H96.9849V126.033H107.091V146.967ZM152.226 146.967H125.17V126.033H135.277V136.975H152.226V146.946V146.967ZM152.226 64.2244H107.091V71.1196H147.999V90.36H152.226V100.331H147.999V120.728H30.9682V110.757H72.9846V100.331H30.9682V90.36H72.9846V81.0908H30.9682V71.1196H72.9846V64.2244H30.9682V54.2533H72.9846V46.8626H30.8845V36.8915H83.0911V54.2533H96.9849V36.8915H148.062V46.8626H107.091V54.2533H152.226V64.2244Z" fill="#8D0034"/>
<path d="M137.893 81.0906H107.092V90.3598H137.893V81.0906Z" fill="#8D0034"/>
<path d="M137.893 100.331H107.092V110.757H137.893V100.331Z" fill="#8D0034"/>
</svg>
