<svg width="255" height="74" viewBox="0 0 255 74" fill="none" xmlns="http://www.w3.org/2000/svg">
<g clip-path="url(#clip0_1128_2)">
<path d="M151.417 24.5547L151.994 25.5686C150.835 25.7752 149.497 25.929 147.977 26.0251V27.0485H152.985V28.0576H149.276C149.733 28.4613 150.151 28.7544 150.527 28.9466C151.123 29.2781 151.96 29.5857 153.033 29.874L152.504 31.0176C152.119 30.859 151.768 30.7149 151.45 30.5947V35.8227H150.363V35.2317H144.537V35.8227H143.464V30.6476C143.147 30.7821 142.824 30.9263 142.497 31.0704L141.833 29.9605C143.171 29.4944 144.114 29.0763 144.657 28.7063C144.951 28.5381 145.225 28.3219 145.485 28.0576H141.963V27.0485H146.841V26.0731C145.658 26.1212 144.388 26.1452 143.026 26.1452L142.67 25.0736C146.11 25.0736 149.026 24.9007 151.412 24.5547H151.417ZM144.128 30.2872H146.846V28.0576H146.764C146.394 28.5814 145.99 29.0235 145.547 29.3934C145.167 29.6914 144.696 29.9893 144.128 30.2824V30.2872ZM144.542 32.1996H150.368V31.3443H144.542V32.1996ZM144.542 34.2226H150.368V33.2087H144.542V34.2226ZM147.982 30.2872H150.815C150.31 30.0614 149.896 29.8355 149.574 29.6001C149.088 29.2781 148.569 28.764 148.025 28.0576H147.977V30.2872H147.982Z" fill="#343741"/>
<path d="M157.017 27.505C157.719 27.8366 158.364 28.2258 158.955 28.6871L158.224 29.8067C157.642 29.2445 157.036 28.7928 156.406 28.4564L157.021 27.505H157.017ZM158.032 30.489L158.599 30.8975C159.465 30.4554 160.076 30.0566 160.432 29.6914C160.62 29.5088 160.808 29.2829 160.986 29.0186H159.085V28.0096H160.846V26.7939H159.384V25.7944H160.846V24.5547H161.981V25.7944H164.166V24.5547H165.253V25.7944H167.12V26.7939H165.253V28.0096H167.413V29.0186H165.109C165.402 29.3886 165.672 29.6481 165.922 29.8019C166.307 30.1142 166.85 30.4169 167.553 30.7052L167.043 31.7768C166.335 31.4164 165.773 31.0704 165.354 30.7389V33.2327H161.481V34.1457C161.481 34.4004 161.621 34.5301 161.905 34.5301H165.272C165.498 34.5301 165.667 34.4725 165.768 34.3475C165.902 34.2418 165.989 33.7229 166.028 32.7811L167.067 33.1414C166.97 34.3139 166.802 35.0058 166.557 35.2221C166.345 35.4383 165.965 35.5488 165.421 35.5488H161.486C161.154 35.5488 160.889 35.4479 160.683 35.2461C160.485 35.0395 160.389 34.7704 160.389 34.4388V31.1858C160.033 31.4741 159.624 31.7528 159.162 32.017L158.902 31.5606C158.436 33.2039 157.931 34.6406 157.377 35.8611L156.478 34.8521C156.968 33.8334 157.483 32.3774 158.027 30.4794L158.032 30.489ZM157.488 24.6027C158.157 24.9055 158.773 25.2755 159.331 25.6983L158.599 26.8323C158.046 26.3038 157.474 25.8761 156.877 25.5542L157.493 24.6027H157.488ZM161.481 31.0704V32.2621H164.257V31.0704H161.481ZM161.505 30.1094H164.623C164.373 29.8115 164.127 29.4511 163.891 29.0283H162.131C161.948 29.4367 161.741 29.7971 161.505 30.1094ZM161.977 28.0144H164.161V26.7987H161.977V28.0144Z" fill="#343741"/>
<path d="M181.509 24.7373V35.693H180.47V35.2942H172.344V35.693H171.315V24.7373H181.509ZM172.34 34.3331H180.465V25.7127H172.34V34.3331ZM176.746 31.6951V32.6369C175.674 32.9156 174.413 33.1943 172.965 33.4682L172.729 32.4063C174.1 32.2717 175.438 32.0315 176.746 31.6951ZM172.777 27.0822H176.65C176.641 26.7218 176.636 26.347 176.626 25.9626H177.608C177.608 26.3614 177.617 26.7362 177.641 27.0822H178.753C178.632 26.7699 178.502 26.472 178.353 26.1933L179.229 25.9146C179.426 26.2173 179.609 26.5681 179.772 26.9621L179.263 27.0822H180.124V28.0096H177.68C177.713 28.788 177.771 29.4319 177.858 29.9365C177.92 30.3545 177.997 30.7341 178.093 31.0801C178.478 30.4602 178.863 29.5568 179.253 28.37L180.047 28.913C179.503 30.3881 179.008 31.4741 178.56 32.166C178.546 32.1901 178.531 32.2045 178.526 32.2141C178.541 32.2621 178.56 32.3054 178.584 32.3486C178.791 32.733 178.969 32.9252 179.128 32.9252C179.205 32.9252 179.311 32.4495 179.445 31.5029L180.388 32.2237C180.128 33.1367 179.936 33.67 179.811 33.8142C179.671 34.0064 179.484 34.1025 179.258 34.1025C178.921 34.1025 178.575 33.8718 178.228 33.4154C178.108 33.2808 178.007 33.1367 177.92 32.9925C177.535 33.425 177.083 33.8286 176.564 34.1938L175.986 33.3865C176.583 32.9541 177.078 32.4976 177.463 32.0267C177.314 31.5846 177.17 31.1137 177.04 30.6044C176.881 29.9365 176.77 29.0715 176.708 28.0048H172.787V27.0774L172.777 27.0822ZM173.157 28.6247H176.03V31.4789H173.157V28.6247ZM175.188 30.662V29.4559H173.994V30.662H175.188Z" fill="#343741"/>
<path d="M185.642 24.9776H188.985V25.8329C188.875 26.2654 188.755 26.7026 188.629 27.1447C189.038 26.7939 189.385 26.4143 189.669 26.0107C189.928 25.6647 190.164 25.1506 190.376 24.4683L191.319 24.5788C191.271 24.7854 191.218 24.9728 191.155 25.1314H192.844C193.104 25.8858 193.484 26.621 193.989 27.3369C194.263 27.0054 194.561 26.5969 194.889 26.0972H193.445V25.1362H196.091V26.0395C195.673 26.818 195.201 27.5147 194.672 28.1346C195.119 28.6583 195.644 29.1533 196.245 29.629L195.596 30.5419C195.115 30.1719 194.696 29.8019 194.345 29.432V30.1047H190.621V29.6962C190.284 30.0086 189.895 30.3209 189.462 30.6332L188.812 29.8164C189.308 29.504 189.726 29.2061 190.063 28.9274C189.856 28.7256 189.63 28.5286 189.38 28.3364L189.948 27.7838C190.217 27.976 190.458 28.1538 190.679 28.3124C190.756 28.2163 190.833 28.1298 190.905 28.0481C190.953 27.9904 191.006 27.9328 191.069 27.8655C190.809 27.6396 190.544 27.4474 190.275 27.2889L190.761 26.5777C191.045 26.7074 191.309 26.8564 191.555 27.0342C191.689 26.7363 191.805 26.4239 191.911 26.0972H190.717C190.64 26.2654 190.544 26.4143 190.434 26.5441C190.063 27.1063 189.596 27.6204 189.029 28.0865L188.543 27.4474C188.408 27.8799 188.278 28.3124 188.153 28.7352C188.461 29.3214 188.673 29.8356 188.793 30.2777C188.957 30.7582 189.043 31.1666 189.043 31.5078C189.029 32.1565 188.918 32.6129 188.711 32.882C188.476 33.2136 187.98 33.377 187.225 33.377L186.883 32.2333C187.095 32.291 187.282 32.3198 187.451 32.3198C187.619 32.3198 187.744 32.2622 187.816 32.1517C187.903 32.0459 187.946 31.8345 187.946 31.5126C187.946 31.133 187.889 30.7822 187.783 30.4506C187.662 30.0086 187.427 29.4944 187.076 28.9082C187.47 27.7502 187.744 26.7795 187.903 25.9963H186.734V35.7987H185.647V24.9872L185.642 24.9776ZM190.26 32.3102L191.194 32.7667C190.602 33.6797 189.914 34.4629 189.125 35.1164L188.119 34.3716C188.899 33.795 189.611 33.1079 190.26 32.3102ZM189.385 30.9984H195.779V32.0075H193.06V34.6311C193.06 35.0395 192.964 35.323 192.777 35.472C192.618 35.6498 192.305 35.7363 191.834 35.7363H190.996L190.77 34.6263C191.078 34.6743 191.324 34.6984 191.502 34.6984C191.81 34.6984 191.963 34.6071 191.963 34.4197V31.9979H189.39V30.9888L189.385 30.9984ZM191.179 29.134H194.1C193.912 28.9322 193.753 28.7496 193.628 28.5814C193.205 28.0673 192.853 27.5243 192.574 26.9573C192.315 27.5339 192.045 28.0192 191.771 28.4037C191.612 28.6439 191.415 28.889 191.179 29.1388V29.134ZM194.393 32.3631C195.211 33.1751 195.846 33.8623 196.293 34.4341L195.336 35.1212C194.917 34.4725 194.34 33.7229 193.599 32.882L194.393 32.3631Z" fill="#343741"/>
<path d="M205.983 24.4731C206.117 24.6798 206.238 24.9008 206.348 25.1363H210.837V26.0973H207.719L208.513 26.4C208.393 26.6162 208.258 26.8277 208.099 27.0247H210.5V27.8896H207.618V28.6104H209.947V30.2345H210.644V31.1138H209.947V32.8821H208.09C208.35 33.1368 208.648 33.3867 208.989 33.6269C209.432 33.9248 210.048 34.242 210.846 34.5783L210.043 35.5874C209.201 35.0973 208.513 34.612 207.989 34.1314C207.868 34.0017 207.748 33.8816 207.623 33.7711V35.7796H206.584V32.8773H205.367V35.7796H204.328V34.0594C204.251 34.1411 204.169 34.2083 204.077 34.266C203.567 34.7465 202.894 35.1886 202.057 35.5922L201.383 34.7129C202.11 34.4005 202.716 34.0594 203.216 33.6894C203.476 33.4828 203.726 33.2137 203.972 32.8821H202.389V32.0268H204.328V31.1138H201.999V30.2345H204.328V29.4753H202.389V28.6104H204.328V27.8896H201.999V27.0247H203.938C203.851 26.818 203.741 26.6114 203.606 26.4096L204.4 26.0973H201.802V29.1822C201.802 30.1672 201.725 31.2051 201.576 32.2863C201.403 33.4011 201.109 34.5062 200.691 35.597L199.748 34.7321C200.142 33.8479 200.407 32.9254 200.537 31.9643C200.657 30.9697 200.715 30.0423 200.715 29.1822V25.1363H205.088C204.987 24.9777 204.876 24.8143 204.756 24.6557L205.997 24.4731H205.983ZM205.083 27.0247H206.901C207.089 26.7267 207.253 26.4192 207.387 26.0973H204.717C204.852 26.376 204.972 26.6883 205.083 27.0247ZM206.57 28.6152V27.8944H205.352V28.6152H206.57ZM205.352 29.4801V30.2393H206.57V29.4801H205.352ZM205.352 31.1186V32.0316H206.57V31.1186H205.352ZM207.609 29.4801V30.2393H208.898V29.4801H207.609ZM207.609 31.1186V32.0316H208.898V31.1186H207.609Z" fill="#343741"/>
<path d="M214.484 25.2083H220.011V26.2174H218.097V28.9035H219.16C219.521 28.3317 219.824 27.7262 220.069 27.0871C220.319 26.5009 220.555 25.6312 220.776 24.4731L221.945 24.6077C221.849 25.2179 221.719 25.7705 221.556 26.2703H225.404V27.3899H224.447C224.385 29.4513 223.976 31.1186 223.22 32.3872C223.158 32.4929 223.1 32.5842 223.042 32.6659C223.624 33.3098 224.423 33.9681 225.443 34.6504L224.818 35.794C223.788 35.1021 222.956 34.3861 222.325 33.6365C221.647 34.3909 220.757 35.1117 219.655 35.794L218.972 34.7129C220.098 34.1122 220.978 33.4395 221.618 32.7043C221.108 31.8202 220.675 30.6573 220.329 29.211C220.108 29.5714 219.867 29.9174 219.607 30.2489L219.381 29.9702H218.092V32.9542C218.698 32.7524 219.275 32.5265 219.829 32.2815V33.4491C218.356 34.1074 216.658 34.7129 214.739 35.2655L214.383 34.1074C214.594 34.0594 214.791 34.0017 214.974 33.9392V27.7887H216.062V33.6509C216.394 33.5548 216.706 33.4491 217.005 33.3386V26.2222H214.479V25.2131L214.484 25.2083ZM221.026 27.7743C221.382 29.557 221.82 30.864 222.349 31.7001C222.946 30.6477 223.292 29.211 223.379 27.3899H221.219C221.156 27.5196 221.099 27.6397 221.041 27.7502L221.031 27.7743H221.026Z" fill="#343741"/>
<path d="M231.928 24.5549L232.294 25.4967C231.885 25.5784 231.216 25.6601 230.288 25.7514L230.345 26.328H232.154V27.1352H230.393L230.427 27.7839H232.154V28.6489H230.49L230.538 29.3936H237.591L237.639 28.6489H236.09V27.7839H237.696L237.745 27.1833H236.09V26.376H237.817L237.865 25.7129H235.998V24.7375H238.952L238.635 29.3985H239.428V31.7818H238.332V30.3355H229.835V31.7818H228.738V29.3985H229.508L229.234 24.9201C230.09 24.8816 230.995 24.7615 231.938 24.5597L231.928 24.5549ZM230.735 31.0226H237.624V31.9115C236.811 32.2959 235.878 32.6371 234.824 32.935H239.337V33.8961H234.752V34.934C234.738 35.1886 234.67 35.3856 234.55 35.525C234.343 35.7268 234.117 35.8277 233.867 35.8277H232.145L231.933 34.8667C232.352 34.8811 232.789 34.8907 233.256 34.8907C233.501 34.8907 233.622 34.8042 233.622 34.636V33.9009H228.955V32.9398H233.622V32.517C234.305 32.3584 235.026 32.1422 235.782 31.8779H230.735V31.0226ZM235.036 24.5549L235.743 25.0114C235.498 25.2853 235.257 25.5063 235.022 25.6745C235.204 25.8427 235.382 25.9964 235.565 26.131L234.94 26.7701C234.743 26.5875 234.516 26.3856 234.266 26.1694C233.857 26.4193 233.371 26.6547 232.813 26.8806L232.352 26.0733C232.77 25.9628 233.165 25.809 233.535 25.6168C233.275 25.4486 233.001 25.266 232.722 25.0738L233.29 24.5068C233.646 24.7327 233.978 24.9489 234.295 25.1555C234.545 24.9873 234.795 24.7855 235.041 24.5549H235.036ZM235.166 26.8325L235.897 27.2794C235.599 27.6013 235.31 27.8752 235.036 28.0963C235.281 28.2885 235.503 28.4711 235.7 28.6392L235.084 29.2783C234.858 29.0621 234.593 28.8314 234.29 28.5912C233.905 28.817 233.463 29.0285 232.967 29.2303L232.496 28.447C232.876 28.3269 233.227 28.1876 233.559 28.0242C233.314 27.856 233.068 27.6974 232.813 27.5437L233.391 26.9767C233.723 27.1689 234.021 27.3707 234.29 27.5773C234.598 27.3515 234.887 27.1016 235.166 26.8325Z" fill="#343741"/>
<path d="M243.316 24.9536H247.083V25.8425C246.813 26.7555 246.505 27.7309 246.149 28.7688C246.472 29.3455 246.703 29.8548 246.847 30.2969C247.006 30.7726 247.083 31.1714 247.083 31.503C247.068 32.1517 246.943 32.6081 246.717 32.8772C246.448 33.2088 245.865 33.3722 244.971 33.3722L244.629 32.1901C244.841 32.2381 245.043 32.2622 245.23 32.2622C245.466 32.2622 245.644 32.2093 245.76 32.1036C245.885 32.0075 245.947 31.8057 245.947 31.503C245.947 31.133 245.89 30.787 245.784 30.4651C245.644 30.0326 245.384 29.5281 245.014 28.9466C245.471 27.7838 245.784 26.8036 245.947 26.0107H244.437V35.7891H243.316V24.9536ZM247.285 30.0086H253.948V31.0705H251.643V34.1986C251.643 34.4581 251.783 34.5831 252.067 34.5831H252.562C252.697 34.5831 252.793 34.5158 252.846 34.3764C252.918 34.2563 252.966 33.6653 252.986 32.6081L254.025 32.9445C253.953 34.2371 253.818 35.0059 253.611 35.2462C253.452 35.4768 253.149 35.5969 252.702 35.5969H251.648C251.316 35.5969 251.057 35.496 250.869 35.2942C250.657 35.0924 250.551 34.8281 250.551 34.5014V31.0705H249.782C249.709 32.2333 249.512 33.1559 249.18 33.8383C248.872 34.5446 248.131 35.2077 246.958 35.8228L246.164 34.8617C247.092 34.4437 247.718 33.992 248.045 33.5019C248.401 32.9733 248.608 32.1613 248.67 31.0705H247.275V30.0086H247.285ZM250.556 24.4683C250.744 24.8142 250.912 25.1938 251.052 25.6119H253.722V28.3076H253.13V28.8986H247.848V28.3076H247.102V25.6119H249.844C249.671 25.2659 249.493 24.944 249.31 24.6509L250.551 24.4683H250.556ZM248.194 27.8174H252.635V26.6738H248.194V27.8174Z" fill="#343741"/>
<path d="M142.675 40.4741H143.435V42.2136H145.162V40.4741H145.927V44.7843H145.162V42.8479H143.435V44.7843H142.675V40.4741Z" fill="#343741"/>
<path d="M150.517 42.6076C150.517 43.8474 149.925 44.8468 148.597 44.8468C147.27 44.8468 146.736 43.8474 146.736 42.6028C146.736 41.5169 147.318 40.4165 148.655 40.4165C149.92 40.4165 150.517 41.4208 150.517 42.6076ZM147.525 42.6028C147.525 43.5158 147.89 44.2366 148.631 44.2366C149.43 44.2366 149.738 43.5494 149.738 42.6124C149.738 41.7523 149.43 41.0316 148.621 41.0316C147.813 41.0316 147.525 41.7331 147.525 42.6028Z" fill="#343741"/>
<path d="M151.316 44.7843V40.4741H152.297C153.731 43.2515 153.947 43.6695 154.015 43.8713H154.024C153.981 43.338 153.976 42.6364 153.976 41.9349V40.4741H154.678V44.7843H153.745C152.21 41.7475 152.061 41.4303 151.989 41.2622H151.984C152.013 41.8099 152.018 42.5499 152.018 43.3188V44.7843H151.316Z" fill="#343741"/>
<path d="M159.047 44.7843H158.479C158.45 44.6497 158.431 44.4575 158.421 44.2413C158.2 44.693 157.767 44.8467 157.199 44.8467C156.069 44.8467 155.492 43.9001 155.492 42.6508C155.492 41.4015 156.175 40.4116 157.426 40.4116C158.417 40.4116 158.941 40.9546 159.056 41.6898H158.306C158.21 41.3486 157.984 41.0315 157.382 41.0315C156.584 41.0315 156.276 41.7715 156.276 42.6556C156.276 43.5398 156.588 44.2317 157.358 44.2317C158.128 44.2317 158.287 43.7127 158.287 43.0785V43.0544H157.31V42.4009H159.042V44.7795L159.047 44.7843Z" fill="#343741"/>
<path d="M161.476 40.4741H162.227V42.5259C162.694 41.9541 163.42 41.0796 163.906 40.4741H164.82L163.3 42.228L164.911 44.7843H163.997L162.771 42.7277L162.232 43.3091V44.7843H161.481V40.4741H161.476Z" fill="#343741"/>
<path d="M168.755 42.6076C168.755 43.8474 168.164 44.8468 166.836 44.8468C165.508 44.8468 164.974 43.8474 164.974 42.6028C164.974 41.5169 165.556 40.4165 166.894 40.4165C168.159 40.4165 168.755 41.4208 168.755 42.6076ZM165.763 42.6028C165.763 43.5158 166.129 44.2366 166.869 44.2366C167.668 44.2366 167.976 43.5494 167.976 42.6124C167.976 41.7523 167.668 41.0316 166.86 41.0316C166.052 41.0316 165.763 41.7331 165.763 42.6028Z" fill="#343741"/>
<path d="M169.554 44.7843V40.4741H170.535C171.969 43.2515 172.186 43.6695 172.253 43.8713H172.263C172.219 43.338 172.214 42.6364 172.214 41.9349V40.4741H172.917V44.7843H171.984C170.449 41.7475 170.3 41.4303 170.228 41.2622H170.223C170.252 41.8099 170.256 42.5499 170.256 43.3188V44.7843H169.554Z" fill="#343741"/>
<path d="M177.28 44.7843H176.713C176.684 44.6497 176.665 44.4575 176.655 44.2413C176.434 44.693 176.001 44.8467 175.433 44.8467C174.302 44.8467 173.725 43.9001 173.725 42.6508C173.725 41.4015 174.408 40.4116 175.659 40.4116C176.65 40.4116 177.175 40.9546 177.29 41.6898H176.54C176.443 41.3486 176.217 41.0315 175.616 41.0315C174.817 41.0315 174.509 41.7715 174.509 42.6556C174.509 43.5398 174.822 44.2317 175.592 44.2317C176.362 44.2317 176.52 43.7127 176.52 43.0785V43.0544H175.544V42.4009H177.276V44.7795L177.28 44.7843Z" fill="#343741"/>
<path d="M180.47 40.4741V44.7843H179.71V40.4741H180.47Z" fill="#343741"/>
<path d="M181.485 44.7843V40.4741H182.467C183.9 43.2515 184.117 43.6695 184.184 43.8713H184.194C184.15 43.338 184.146 42.6364 184.146 41.9349V40.4741H184.848V44.7843H183.915C182.38 41.7475 182.231 41.4303 182.159 41.2622H182.154C182.183 41.8099 182.188 42.5499 182.188 43.3188V44.7843H181.485Z" fill="#343741"/>
<path d="M186.643 41.1084H185.44V40.4741H188.615V41.1084H187.412V44.7843H186.643V41.1084Z" fill="#343741"/>
<path d="M191.824 42.8527H189.924V44.1548H192.016L191.92 44.7843H189.178V40.4741H191.906V41.1084H189.924V42.2184H191.824V42.8527Z" fill="#343741"/>
<path d="M193.426 42.944V44.7843H192.675V40.4741H194.354C195.153 40.4741 195.716 40.8681 195.716 41.6225C195.716 42.2232 195.384 42.5019 195.033 42.6316C195.471 42.7902 195.634 43.1314 195.634 43.6888V43.7897C195.634 44.1789 195.653 44.5441 195.692 44.7891H194.951C194.889 44.6113 194.874 44.2846 194.874 43.7801V43.6743C194.874 43.141 194.682 42.944 194.066 42.944H193.421H193.426ZM193.426 42.3337H194.128C194.595 42.3337 194.956 42.204 194.956 41.685C194.956 41.2622 194.658 41.0844 194.253 41.0844H193.426V42.3337Z" fill="#343741"/>
<path d="M196.524 44.7843V40.4741H197.506C198.939 43.2515 199.156 43.6695 199.223 43.8713H199.233C199.19 43.338 199.185 42.6364 199.185 41.9349V40.4741H199.887V44.7843H198.954C197.419 41.7475 197.27 41.4303 197.198 41.2622H197.193C197.222 41.8099 197.227 42.5499 197.227 43.3188V44.7843H196.524Z" fill="#343741"/>
<path d="M201.528 43.6648L201.186 44.7892H200.436C200.575 44.3712 201.629 40.9499 201.783 40.479H202.764L204.178 44.7892H203.375L203.009 43.6648H201.528ZM202.851 43.0305C202.548 42.0743 202.345 41.4496 202.254 41.07H202.244C202.134 41.5602 201.927 42.2281 201.677 43.0305H202.846H202.851Z" fill="#343741"/>
<path d="M205.04 41.1084H203.837V40.4741H207.012V41.1084H205.809V44.7843H205.04V41.1084Z" fill="#343741"/>
<path d="M208.34 40.4741V44.7843H207.58V40.4741H208.34Z" fill="#343741"/>
<path d="M212.934 42.6076C212.934 43.8474 212.343 44.8468 211.015 44.8468C209.687 44.8468 209.153 43.8474 209.153 42.6028C209.153 41.5169 209.735 40.4165 211.073 40.4165C212.338 40.4165 212.934 41.4208 212.934 42.6076ZM209.942 42.6028C209.942 43.5158 210.308 44.2366 211.049 44.2366C211.847 44.2366 212.155 43.5494 212.155 42.6124C212.155 41.7523 211.847 41.0316 211.039 41.0316C210.231 41.0316 209.942 41.7331 209.942 42.6028Z" fill="#343741"/>
<path d="M213.733 44.7843V40.4741H214.715C216.148 43.2515 216.365 43.6695 216.432 43.8713H216.442C216.398 43.338 216.394 42.6364 216.394 41.9349V40.4741H217.096V44.7843H216.163C214.628 41.7475 214.479 41.4303 214.407 41.2622H214.402C214.435 41.8099 214.435 42.5499 214.435 43.3188V44.7843H213.733Z" fill="#343741"/>
<path d="M218.741 43.6648L218.4 44.7892H217.649C217.789 44.3712 218.842 40.9499 218.996 40.479H219.978L221.392 44.7892H220.589L220.223 43.6648H218.741ZM220.064 43.0305C219.761 42.0743 219.559 41.4496 219.468 41.07H219.458C219.347 41.5602 219.141 42.2281 218.89 43.0305H220.059H220.064Z" fill="#343741"/>
<path d="M221.95 40.4741H222.71V44.1548H224.688L224.596 44.7843H221.945V40.4741H221.95Z" fill="#343741"/>
<path d="M227.04 43.6648L226.699 44.7892H225.948C226.088 44.3712 227.141 40.9499 227.295 40.479H228.277L229.691 44.7892H228.888L228.522 43.6648H227.04ZM228.363 43.0305C228.06 42.0743 227.858 41.4496 227.767 41.07H227.757C227.646 41.5602 227.44 42.2281 227.189 43.0305H228.358H228.363Z" fill="#343741"/>
<path d="M233.453 43.4629C233.333 44.1788 232.857 44.8467 231.779 44.8467C230.451 44.8467 229.965 43.8665 229.965 42.6172C229.965 41.3678 230.567 40.4116 231.813 40.4116C232.919 40.4116 233.371 41.1084 233.429 41.7955H232.679C232.582 41.3871 232.4 41.0315 231.789 41.0315C231.024 41.0315 230.749 41.7907 230.749 42.6124C230.749 43.434 230.995 44.2317 231.793 44.2317C232.395 44.2317 232.597 43.8377 232.698 43.4629H233.448H233.453Z" fill="#343741"/>
<path d="M234.872 43.6648L234.531 44.7892H233.78C233.92 44.3712 234.973 40.9499 235.127 40.479H236.109L237.523 44.7892H236.72L236.354 43.6648H234.872ZM236.195 43.0305C235.892 42.0743 235.69 41.4496 235.599 41.07H235.589C235.479 41.5602 235.272 42.2281 235.022 43.0305H236.191H236.195Z" fill="#343741"/>
<path d="M238.081 40.4741H239.549C240.785 40.4741 241.545 41.2381 241.545 42.5355C241.545 43.9386 240.795 44.7843 239.501 44.7843H238.077V40.4741H238.081ZM238.846 44.1789H239.486C240.328 44.1789 240.756 43.5734 240.756 42.5499C240.756 41.661 240.318 41.0892 239.496 41.0892H238.846V44.1789Z" fill="#343741"/>
<path d="M244.99 42.8527H243.09V44.1548H245.182L245.086 44.7843H242.344V40.4741H245.072V41.1084H243.09V42.2184H244.99V42.8527Z" fill="#343741"/>
<path d="M249.32 43.0978C249.32 42.3434 249.329 41.4833 249.349 41.0124H249.32C249.123 41.8629 248.608 43.5591 248.208 44.7892H247.54C247.241 43.7609 246.712 41.8629 246.525 41.0028H246.496C246.529 41.5025 246.549 42.4491 246.549 43.1891V44.7892H245.846V40.479H246.986C247.342 41.5794 247.795 43.1699 247.925 43.8042H247.934C248.026 43.2948 248.589 41.589 248.959 40.479H250.061V44.7892H249.325V43.1026L249.32 43.0978Z" fill="#343741"/>
<path d="M251.894 44.7843V43.1314C251.894 43.0833 251.884 43.0401 251.86 43.0016L250.479 40.4741H251.34C251.663 41.1324 252.125 42.0358 252.312 42.4154C252.61 41.8003 252.981 41.0892 253.284 40.4741H254.083L252.687 42.9968C252.663 43.0353 252.654 43.0641 252.654 43.1217V44.7891H251.894V44.7843Z" fill="#343741"/>
<path d="M143.339 50.8626L142.997 51.987H142.247C142.386 51.5689 143.44 48.1477 143.594 47.6768H144.575L145.99 51.987H145.186L144.821 50.8626H143.339ZM144.662 50.2283C144.359 49.2721 144.157 48.6474 144.065 48.2678H144.056C143.945 48.7579 143.738 49.4258 143.488 50.2283H144.657H144.662Z" fill="#343741"/>
<path d="M149.824 51.9874H149.257C149.228 51.8529 149.208 51.6607 149.199 51.4444C148.977 51.8961 148.545 52.0499 147.977 52.0499C146.846 52.0499 146.269 51.1033 146.269 49.8539C146.269 48.6046 146.952 47.6147 148.203 47.6147C149.194 47.6147 149.718 48.1577 149.834 48.8929H149.083C148.987 48.5517 148.761 48.2346 148.16 48.2346C147.361 48.2346 147.053 48.9746 147.053 49.8587C147.053 50.7429 147.366 51.4348 148.136 51.4348C148.905 51.4348 149.064 50.9159 149.064 50.2816V50.2576H148.087V49.6041H149.819V51.9826L149.824 51.9874Z" fill="#343741"/>
<path d="M151.518 50.8626L151.176 51.987H150.426C150.565 51.5689 151.619 48.1477 151.773 47.6768H152.754L154.169 51.987H153.365L152.999 50.8626H151.518ZM152.841 50.2283C152.538 49.2721 152.336 48.6474 152.244 48.2678H152.235C152.124 48.7579 151.917 49.4258 151.667 50.2283H152.836H152.841Z" fill="#343741"/>
<path d="M155.492 47.6768V51.987H154.731V47.6768H155.492Z" fill="#343741"/>
<path d="M156.507 51.987V47.6768H157.488C158.922 50.4541 159.138 50.8722 159.206 51.074H159.215C159.172 50.5406 159.167 49.8391 159.167 49.1375V47.6768H159.87V51.987H158.936C157.401 48.9501 157.252 48.633 157.18 48.4648H157.175C157.204 49.0126 157.209 49.7526 157.209 50.5214V51.987H156.507Z" fill="#343741"/>
<path d="M161.303 50.7329C161.375 51.1797 161.669 51.444 162.15 51.444C162.631 51.444 162.881 51.2134 162.881 50.8482C162.881 50.4253 162.65 50.2523 161.977 50.0553C161.01 49.7766 160.668 49.4403 160.668 48.8204C160.668 48.0612 161.265 47.6191 162.083 47.6191C163.083 47.6191 163.507 48.1621 163.555 48.8252H162.804C162.746 48.4648 162.559 48.2102 162.073 48.2102C161.645 48.2102 161.433 48.412 161.433 48.7435C161.433 49.0943 161.654 49.2096 162.294 49.397C163.382 49.719 163.661 50.1466 163.661 50.7569C163.661 51.4632 163.184 52.0399 162.116 52.0399C161.193 52.0399 160.606 51.5641 160.553 50.7329H161.308H161.303Z" fill="#343741"/>
<path d="M165.128 48.311H163.925V47.6768H167.1V48.311H165.898V51.987H165.128V48.311Z" fill="#343741"/>
<path d="M172.609 50.666C172.489 51.382 172.012 52.0499 170.935 52.0499C169.607 52.0499 169.121 51.0696 169.121 49.8203C169.121 48.571 169.722 47.6147 170.968 47.6147C172.075 47.6147 172.527 48.3115 172.585 48.9986H171.834C171.738 48.5902 171.555 48.2346 170.944 48.2346C170.179 48.2346 169.905 48.9938 169.905 49.8155C169.905 50.6372 170.151 51.4348 170.949 51.4348C171.551 51.4348 171.753 51.0408 171.854 50.666H172.604H172.609Z" fill="#343741"/>
<path d="M176.953 49.8103C176.953 51.05 176.361 52.0495 175.034 52.0495C173.706 52.0495 173.172 51.05 173.172 49.8055C173.172 48.7195 173.754 47.6191 175.091 47.6191C176.357 47.6191 176.953 48.6234 176.953 49.8103ZM173.961 49.8055C173.961 50.7184 174.326 51.4392 175.067 51.4392C175.866 51.4392 176.174 50.7521 176.174 49.8151C176.174 48.955 175.866 48.2342 175.058 48.2342C174.249 48.2342 173.961 48.9357 173.961 49.8055Z" fill="#343741"/>
<path d="M178.502 50.1466V51.987H177.752V47.6768H179.431C180.23 47.6768 180.792 48.0708 180.792 48.8252C180.792 49.4258 180.46 49.7045 180.109 49.8343C180.547 49.9928 180.711 50.334 180.711 50.8914V50.9923C180.711 51.3815 180.73 51.7467 180.768 51.9918H180.027C179.965 51.814 179.95 51.4872 179.95 50.9827V50.877C179.95 50.3436 179.758 50.1466 179.142 50.1466H178.498H178.502ZM178.502 49.5363H179.205C179.671 49.5363 180.032 49.4066 180.032 48.8876C180.032 48.4648 179.734 48.287 179.33 48.287H178.502V49.5363Z" fill="#343741"/>
<path d="M182.351 50.1466V51.987H181.601V47.6768H183.28C184.078 47.6768 184.641 48.0708 184.641 48.8252C184.641 49.4258 184.309 49.7045 183.958 49.8343C184.396 49.9928 184.559 50.334 184.559 50.8914V50.9923C184.559 51.3815 184.579 51.7467 184.617 51.9918H183.876C183.814 51.814 183.799 51.4872 183.799 50.9827V50.877C183.799 50.3436 183.607 50.1466 182.991 50.1466H182.346H182.351ZM182.351 49.5363H183.054C183.52 49.5363 183.881 49.4066 183.881 48.8876C183.881 48.4648 183.583 48.287 183.179 48.287H182.351V49.5363Z" fill="#343741"/>
<path d="M186.161 47.6772V50.4209C186.161 50.9735 186.335 51.4348 187.037 51.4348C187.739 51.4348 187.893 50.9927 187.893 50.4161V47.6724H188.663V50.4353C188.663 51.3387 188.283 52.0498 187.018 52.0498C185.752 52.0498 185.396 51.4011 185.396 50.4545V47.6772H186.161Z" fill="#343741"/>
<path d="M189.625 47.6768H191.165C191.973 47.6768 192.647 48.0948 192.647 48.9357C192.647 49.7766 192.007 50.2619 191.093 50.2619H190.39V51.9918H189.625V47.6816V47.6768ZM190.39 49.6517H191.049C191.55 49.6517 191.872 49.4691 191.872 48.9501C191.872 48.4888 191.545 48.287 191.069 48.287H190.385V49.6517H190.39Z" fill="#343741"/>
<path d="M194.225 48.311H193.022V47.6768H196.197V48.311H194.994V51.987H194.225V48.311Z" fill="#343741"/>
<path d="M197.525 47.6768V51.987H196.765V47.6768H197.525Z" fill="#343741"/>
<path d="M202.119 49.8103C202.119 51.05 201.528 52.0495 200.2 52.0495C198.872 52.0495 198.338 51.05 198.338 49.8055C198.338 48.7195 198.92 47.6191 200.258 47.6191C201.523 47.6191 202.119 48.6234 202.119 49.8103ZM199.127 49.8055C199.127 50.7184 199.493 51.4392 200.234 51.4392C201.032 51.4392 201.34 50.7521 201.34 49.8151C201.34 48.955 201.032 48.2342 200.224 48.2342C199.416 48.2342 199.127 48.9357 199.127 49.8055Z" fill="#343741"/>
<path d="M202.918 51.987V47.6768H203.899C205.333 50.4541 205.55 50.8722 205.617 51.074H205.627C205.583 50.5406 205.578 49.8391 205.578 49.1375V47.6768H206.281V51.987H205.348C203.813 48.9501 203.664 48.633 203.592 48.4648H203.587C203.616 49.0126 203.62 49.7526 203.62 50.5214V51.987H202.918Z" fill="#343741"/>
<path d="M130.739 10V49.551H91.1404V52.1265H133.318V10H130.739Z" fill="#474C55"/>
<path d="M95.7827 59.4016H93.1559V55.7305H91.2459V64.0001H93.1559V60.7278H95.7827V64.0001H97.6926V55.7305H95.7827V59.4016Z" fill="#474C55"/>
<path d="M110.98 64.0001H112.89V60.6173H115.801V64.0001H117.711V55.7305H110.98V64.0001ZM115.801 57.0567V59.2911H112.89V57.0567H115.801Z" fill="#474C55"/>
<path d="M118.87 64.0001H120.78V60.6173H123.691V64.0001H125.601V55.7305H118.87V64.0001ZM123.691 57.0567V59.2911H120.78V57.0567H123.691Z" fill="#474C55"/>
<path d="M133.212 57.0567V55.7305H127.121V64.0001H133.212V62.6739H129.031V57.0567H133.212Z" fill="#474C55"/>
<path d="M108.787 55.7305H106.877V64.0001H108.787V55.7305Z" fill="#474C55"/>
<path d="M106.136 55.7305H103.841L101.397 58.7145V55.7305H99.2994V64.0001H101.397V61.3861L101.715 61.0161L103.904 64.0001H106.141L102.941 59.589L106.136 55.7305Z" fill="#474C55"/>
<path d="M113.429 33.353H110.235V35.7796H113.429V33.353Z" fill="#8D0034"/>
<path d="M113.429 28.8745H110.235V31.032H113.429V28.8745Z" fill="#8D0034"/>
<path d="M93.5455 41.8772V14.1036H110.499V12.2536H113.155V14.1036H128.372V10H91.1304V41.8772H93.5455Z" fill="#8D0034"/>
<path d="M113.429 24.9487H110.235V26.5536H113.429V24.9487Z" fill="#8D0034"/>
<path d="M95.8692 16.4243V41.8771V44.222H91.1304V47.1963H128.372V16.4243H95.8692ZM104.26 44.2076H98.2458V41.8867H101.931V39.34H104.255V44.2124L104.26 44.2076ZM110.235 44.2076H107.911V39.3352H110.235V44.2076ZM115.753 44.2076H113.429V39.3352H115.753V44.2076ZM126.13 44.2076H119.91V39.3352H122.233V41.8819H126.13V44.2027V44.2076ZM126.13 24.9486H115.753V26.5535H125.158V31.0319H126.13V33.3528H125.158V38.1002H98.2507V35.7794H107.911V33.3528H98.2507V31.0319H107.911V28.8744H98.2507V26.5535H107.911V24.9486H98.2507V22.6277H107.911V20.9075H98.2314V18.5866H110.235V22.6277H113.429V18.5866H125.173V20.9075H115.753V22.6277H126.13V24.9486Z" fill="#8D0034"/>
<path d="M122.835 28.8745H115.753V31.032H122.835V28.8745Z" fill="#8D0034"/>
<path d="M122.835 33.353H115.753V35.7796H122.835V33.353Z" fill="#8D0034"/>
</g>
<path d="M43.401 1.09346C44.386 0.805394 45.3658 1.4256 46.217 0.954367C47.0121 0.952086 47.8314 0.882161 48.5299 1.1079C50.4308 0.971848 52.375 1.17554 54.2927 1.22343C54.5655 1.40356 54.9228 1.56622 55.201 1.33212C56.1921 1.31236 56.9848 1.89456 57.6909 2.48893C57.7259 2.78688 57.4477 3.0491 57.8194 3.19503C57.9569 3.10914 58.2131 2.97461 58.3263 3.18667C58.5772 3.62142 58.9807 3.99613 58.9511 4.55022C59.2566 4.89833 58.8629 5.25936 59.0157 5.68271C59.1434 6.31736 58.9222 6.8038 59.2323 7.36625C59.3745 8.93653 59.436 10.5669 59.2984 12.2124C59.1776 12.6836 59.4147 13.1473 59.1244 13.5509C59.0894 13.8481 59.0127 14.2615 59.2171 14.4987C59.1829 15.1364 59.1586 15.8318 59.2962 16.4946L57.9174 17.8832C57.6719 16.7545 57.8042 15.5901 57.8513 14.4827C58.0953 13.9096 57.814 13.123 57.8878 12.4815C57.903 11.3201 57.583 10.1055 57.7722 8.92665C57.6864 8.15975 57.2334 7.46201 57.4994 6.64723C57.1057 5.90389 56.8594 5.04502 56.1974 4.44685C55.9808 4.21047 56.4703 3.97333 56.0743 3.82588C55.7421 3.56366 55.2276 3.44433 55.1196 2.98145C53.8374 2.6075 52.3507 2.66603 50.9993 2.5923C50.6155 2.5543 50.1823 2.16894 49.8615 2.48665L45.6675 2.5391L45.1537 2.39316" fill="#ED2123"/>
<path d="M19.6635 1.15896C21.1122 1.24333 22.6825 1.02975 24.0916 1.22889C25.0083 1.18328 25.953 0.924102 26.8355 1.10576C27.8691 0.914222 28.9226 1.20685 29.8879 1.07307C30.8942 1.09588 31.902 1.11868 32.9068 1.143C33.6547 0.845816 34.2377 1.66972 34.905 1.10576C35.9015 1.21217 37.0811 0.735607 37.9567 1.27221C38.2402 1.30793 38.5526 1.24637 38.6187 0.947664C40.1966 1.17112 41.9022 0.685443 43.401 1.0936L45.1537 2.3933C43.9771 2.30361 42.9214 2.80449 41.7813 2.48679C40.566 2.60992 39.4092 2.41914 38.1391 2.40242C38.0061 2.26257 37.7499 2.18124 37.5949 2.34238L37.3167 2.50427L35.1262 2.38798C34.9985 2.19341 34.6983 2.18656 34.5311 2.31578C33.7779 2.88278 32.6849 2.05355 32.0031 2.80449C31.7074 2.85238 31.4543 3.1412 31.3069 3.3563C31.5106 3.74925 31.1359 4.01375 31.0553 4.33906C31.0074 5.46395 30.7726 6.51435 30.7224 7.63545C30.6715 7.99115 30.2557 7.74413 30.1782 8.04436C29.8529 8.7725 30.7908 8.94123 30.6494 9.63669C30.7771 10.526 30.467 11.2427 30.5385 12.1069C30.2025 12.284 30.2527 12.664 30.3173 12.9338C30.6373 13.5084 30.5537 14.3202 30.5962 14.97C30.6616 16.1588 30.5681 17.2236 30.4625 18.3759C30.3697 18.6328 30.0528 18.3706 29.9593 18.6244L29.9137 20.7397C29.4592 20.764 29.669 21.3538 29.3459 21.4176C28.8793 20.7594 29.0183 19.766 29.029 19.0006C29.2859 17.6037 28.8793 16.4347 29.1802 15.081C29.089 13.9652 29.4615 12.851 29.0738 11.8226C29.2806 10.8262 28.9484 9.77122 28.9879 8.84774C28.6862 8.62581 29.0495 8.40691 28.9302 8.10972C29.026 7.72665 28.7037 7.33522 29.026 7.0464L28.8793 5.51639C28.4916 5.25645 28.7949 4.69705 28.5882 4.36186C28.5646 3.94839 28.389 3.49919 28.0523 3.19517C27.4868 3.06368 27.0779 2.50427 26.5086 2.4009C24.8631 2.34922 23.2594 2.29449 21.6458 2.41154C21.4603 2.3591 21.3394 1.99047 21.1023 2.19341" fill="#ED2123"/>
<path d="M21.1023 2.19358L20.6691 2.47481C15.9407 2.19358 11.0132 2.57513 6.21726 2.35624C5.45796 2.72715 4.5132 2.886 4.04652 3.68938C3.93327 3.77755 3.76226 3.69394 3.64901 3.78287C3.45975 4.18266 3.31306 4.61134 3.09188 5.01189C2.56744 5.65946 2.86767 6.63234 2.58568 7.36124C2.74986 7.85528 2.33106 8.10458 2.38199 8.54314C2.29534 8.57126 2.21401 8.65943 2.18741 8.74455C2.13421 9.03034 2.3227 9.19603 2.42379 9.40505C2.58568 10.267 2.5378 11.4162 2.41391 12.3419C2.3455 12.4977 2.13193 12.4749 2.02324 12.5905C2.50968 12.9363 2.29534 13.5489 2.24746 14.0331C2.0962 14.3629 1.93507 14.6898 1.95863 15.1009C1.58924 15.1511 1.33082 15.6657 0.987274 15.5448C0.912028 15.2499 0.929509 14.9102 1.04048 14.6525C0.775977 13.352 0.972833 11.857 0.93407 10.6128C1.16057 10.6348 1.04048 10.2852 1.30954 10.406C1.84386 10.0123 1.5596 9.29712 1.79066 8.79548C1.57708 8.65943 1.11648 9.12002 1.05036 8.61154C1.12637 7.41901 0.917348 6.15882 1.29282 5.04761C1.02528 3.66126 2.15625 2.81683 2.94747 1.95264C3.13217 1.89184 3.37387 1.9306 3.49548 1.74363C3.53348 1.38792 3.97128 1.32255 4.26694 1.2169C5.29226 0.773788 6.36623 1.19106 7.44172 1.08541C7.49948 1.21234 7.61805 1.42364 7.80047 1.39096C8.05737 1.42896 8.12273 1.15686 8.30363 1.06793C10.7731 1.14926 13.2995 1.21234 15.794 1.12114C17.0618 1.42364 18.3676 0.914399 19.6635 1.15914" fill="#ED2123"/>
<path d="M44.6809 28.2528C45.8795 28.7385 46.8098 27.7002 47.9689 28.3029L49.6578 28.3105L49.9231 28.1494L52.825 27.9807L53.0545 28.1737L55.4814 28.0407C55.6045 28.0818 55.6828 28.2361 55.8112 28.2748C55.828 27.7663 56.3843 27.8537 56.6473 27.5915L56.6184 27.552C56.9726 27.587 57.2158 26.9713 57.5358 26.7547C57.738 26.0972 57.5678 25.2779 58.169 24.8112C58.1196 24.5171 58.1986 24.2723 58.378 24.0709C58.3628 23.1931 58.6858 22.2643 58.457 21.3621C57.6962 21.0641 58.2602 20.203 57.9083 19.658C57.7851 19.0203 58.27 18.4161 57.9174 17.8833L59.2961 16.4946C59.68 17.9213 59.5295 19.6405 59.3843 21.1173C59.7514 23.2098 59.3547 25.4998 59.4436 27.723C59.626 29.0539 59.2095 30.251 59.2764 31.5689C59.1137 33.4592 59.252 35.3571 59.1487 37.2154C59.36 38.7416 59.3501 40.4715 59.439 42.1003C59.2323 42.5024 59.5105 42.8954 59.5447 43.2769C59.1874 44.4436 59.8814 45.906 59.1776 46.9245C58.8971 47.0894 58.7177 46.7086 58.6318 46.511C58.6463 46.4426 58.587 46.3977 58.5429 46.359C58.4145 46.4183 58.3362 46.5756 58.1492 46.5209C57.5533 45.7973 58.1142 44.848 57.9128 43.9465C58.0382 43.7155 57.8345 43.5353 57.8193 43.3096C57.5586 41.7272 57.583 40.112 57.4948 38.4954C57.5586 38.0811 57.9767 37.6631 57.7008 37.242C58.0306 36.032 57.2728 34.9117 57.7479 33.7967C57.738 33.3437 57.7996 32.8436 57.4948 32.5114C57.4499 31.7612 57.2531 31.0855 56.9871 30.4342C56.7408 29.4772 55.7497 30.2327 55.2427 29.6908C54.7327 29.6429 54.1642 29.7265 53.8275 29.2507C53.6056 29.2409 53.4505 29.4142 53.281 29.5297C52.3454 29.535 51.2304 29.8253 50.3859 29.3587C49.6578 29.8542 48.5055 29.6087 47.6839 29.6384L45.3726 29.6566C45.2251 29.4742 45.026 29.3511 44.8162 29.4674" fill="#ED2123"/>
<path d="M44.8162 29.4674L44.5061 29.7008L40.398 29.7509C40.2976 29.7122 40.1966 29.6134 40.1525 29.5153C40.1031 29.3755 40.2551 29.0608 39.9875 29.0942C39.7284 29.0433 39.7238 29.3108 39.4798 29.3306C39.0109 29.114 38.5624 29.4188 38.1687 29.5951L35.6879 29.6027C35.2888 29.5951 35.3033 28.9019 34.8313 29.2219C34.6633 29.5951 34.1959 29.4043 33.8858 29.5252C33.0907 29.6111 32.2714 29.6688 31.715 30.3042C31.2483 30.3841 31.3312 30.9921 30.866 31.0719C31.373 31.6024 30.6737 32.1383 30.6996 32.7205C30.5764 33.587 30.524 34.537 30.5103 35.4172C30.467 35.4172 30.4252 35.4172 30.3994 35.4628C30.8258 36.2342 30.3173 37.0384 30.445 37.8866C30.4784 38.1435 30.6471 38.6748 30.4252 38.9895C29.916 39.2015 30.1295 39.8909 30.0269 40.3583C29.8346 40.6631 29.9836 41.1997 29.5762 41.3206C28.7234 39.0533 29.5602 36.1187 29.1217 33.9282C29.1149 33.6303 28.9051 33.1081 29.2608 32.9751C29.3961 32.8436 29.6081 32.6855 29.5177 32.4301C28.7037 32.177 29.3794 31.1312 28.5524 30.9609C28.408 30.7367 28.1009 30.4297 28.3814 30.1697L28.424 30.1424C28.0956 30.1477 27.746 29.5883 27.5157 30.0747C26.3976 30.1652 25.5365 29.5883 24.4564 29.5807C23.5869 29.3565 22.5616 29.7866 21.7901 29.4469C21.3949 29.57 20.8606 29.1816 20.6858 29.6544C18.74 29.6331 16.8733 29.6711 14.9747 29.8497C14.7626 29.868 14.8994 29.5951 14.7717 29.4993L15.4512 28.1084C17.7542 28.3509 20.1826 28.5295 22.589 28.325C23.2039 27.904 24.0734 28.1137 24.7673 28.0864C25.7577 27.8386 26.9874 28.3965 27.8668 27.6706C29.7594 26.5283 28.8169 24.1356 29.124 22.3722C29.8582 22.2985 29.276 21.3918 29.8962 21.2086C30.2025 21.0741 29.8681 20.5428 30.3097 20.5762C31.0051 21.4701 30.3591 22.617 30.4807 23.6651C30.4282 23.8642 30.2207 24.0961 30.4229 24.3036L30.5384 24.4563C30.4047 25.4672 31.1807 26.0737 30.9861 27.1127C32.2296 28.2521 34.0781 27.8774 35.6993 28.0704C36.017 28.3638 36.3491 28.0028 36.7208 28.0507C37.7697 27.9595 38.5404 28.3273 39.5862 28.1084C39.8918 27.7786 40.5606 27.9063 40.984 27.9671C42.156 28.1282 43.6328 27.6896 44.6809 28.2521" fill="#ED2123"/>
<path d="M14.7717 29.4992C14.0657 29.6831 13.2972 29.4992 12.5455 29.4566C11.8911 30.0518 11.0132 29.4863 10.1939 29.6307C9.96512 29.5509 10.1688 29.1344 9.86859 29.1275C9.67478 29.2697 9.79638 29.6383 9.484 29.6429L8.2337 29.4262C8.07484 29.2598 7.98136 28.8516 7.67353 29.1275C7.4668 29.4141 7.14149 29.4642 6.81694 29.4962C5.68445 29.6611 4.36878 28.993 3.65205 30.1399C2.97103 30.7776 2.93303 31.8554 3.00904 32.8192C2.94063 33.0023 2.54312 32.7857 2.61532 33.1087C2.94291 33.1315 3.0364 33.4994 2.94291 33.7715C2.74073 35.034 3.41947 36.4127 3.21577 37.6357C2.69893 37.9997 3.06984 38.7309 2.98091 39.285L2.91099 39.9934C2.83726 39.9964 2.8099 40.0679 2.75669 40.1119C2.95887 40.4905 2.88286 40.9039 2.8631 41.328L1.3027 41.9825C1.17653 40.7101 1.28522 39.5723 1.27153 38.2977C1.52615 38.1479 1.42051 37.8546 1.48739 37.625L1.25177 37.2777C0.951548 35.6397 1.23201 33.9881 1.04276 32.3479L1.15068 31.9899L1.18945 28.2748C0.780534 27.5025 1.05796 26.6193 0.871742 25.7293C0.72505 25.4891 0.934067 25.2877 0.97283 25.0589C1.00247 23.5722 0.775974 22.1274 1.13168 20.7615C0.629282 19.8768 1.02071 18.7193 0.944708 17.7859C0.917346 17.1064 1.89478 17.0312 1.73821 16.3106C1.83398 16.0256 1.68273 15.6174 2.00499 15.454C2.24517 15.4084 2.42151 15.5878 2.59328 15.7132C2.65865 16.8753 2.38198 18.0002 2.65865 19.1137C2.74073 19.794 2.04604 20.4461 2.5378 21.001C2.60088 22.702 2.70425 24.3878 2.87754 26.0447C2.82206 26.8101 3.83978 26.6915 3.92643 27.3992C4.15217 27.3672 4.45999 27.2616 4.70549 27.4683C5.89119 27.8719 7.26614 27.8286 8.47844 28.1737C10.9 28.027 13.0122 28.0885 15.4512 28.1083" fill="#ED2123"/>
<path d="M36.7854 55.5149C36.869 55.3424 36.6106 55.2193 36.6919 55.0057C37.0507 54.4889 37.8335 54.6584 38.412 54.6629C39.1971 54.7891 39.9997 54.4889 40.7233 54.5747C40.7871 54.8697 41.0334 55.0916 41.3557 55.0718C41.6559 55.0673 42.0671 55.1304 42.1317 54.7473C43.3394 54.9191 44.7744 54.3977 45.8233 55.0984C46.5416 54.9434 47.1352 55.3569 47.7797 55.1038L47.7083 54.878C48.8506 54.6584 50.0987 54.6606 51.2623 54.8081C51.5701 55.3424 52.4442 55.0574 52.9557 55.0027C53.3396 54.4265 54.1984 54.7792 54.7472 54.5003C55.1417 54.5056 55.486 53.9325 55.8774 54.3657C56.1457 54.3186 56.4414 54.1537 56.5341 53.8861C57.0411 53.5753 57.4948 53.0539 57.4424 52.4481C57.4948 52.2064 57.7183 51.9905 57.9919 52.1251C58.2496 52.4185 58.7444 51.5033 58.7444 52.2664C58.8576 52.3523 59.0157 52.4458 59.0917 52.5743C59.1677 53.0683 58.8804 53.4126 58.6167 53.7577C58.4031 54.6143 57.6491 55.195 57.0091 55.746C56.1632 56.0584 55.2329 56.1625 54.3854 56.462C51.3953 56.5509 48.5284 56.3913 45.6949 56.4057L45.3802 56.2826L41.3412 56.3617C39.6258 57.0457 37.7355 56.2043 35.944 56.4673" fill="#ED2123"/>
<path d="M35.944 56.4673C35.0745 56.443 34.1913 56.2461 33.3591 56.4058C32.995 56.101 32.4926 56.3366 32.0966 56.386C31.7698 56.364 31.2172 56.2758 30.8942 56.4947C29.5702 56.364 28.3959 56.332 26.9343 56.332C25.2963 56.7159 23.6804 56.0538 22.0706 56.2682L22.0015 55.0224L22.1558 54.8651C23.3909 54.9951 24.4496 54.6629 25.5988 54.7549C26.8864 54.6462 28.4012 54.5869 28.9005 53.1573C28.8625 52.7483 29.2958 52.3721 28.9636 51.9807C28.8527 51.5452 29.2859 51.2221 29.0115 50.8018C29.0738 49.0864 29.067 47.2159 29.1901 45.5126C29.2578 45.3104 29.2905 44.8847 29.6059 44.9927C29.6279 44.6955 30.0118 44.6879 29.9882 44.3626C29.9973 44.0502 30.0771 43.7621 30.2002 43.4938C30.5104 43.4748 30.505 43.8678 30.6092 44.0798C30.4549 44.8331 30.8205 45.5072 30.4929 46.1943C30.6517 46.9453 30.8759 47.703 30.8083 48.5004C30.9717 48.7808 30.6928 49.1403 31.1085 49.3569C31.2871 49.8244 30.5962 50.0486 30.977 50.494C31.2294 51.2275 30.9938 52.1677 31.3609 52.8418C31.5136 53.462 31.9362 54.1073 32.5671 54.3779C33.5073 54.7002 34.5204 54.8925 35.5549 54.8309C35.5594 55.1456 36.1553 55.1015 35.9212 55.4192C36.1599 55.5689 36.505 55.594 36.7854 55.515" fill="#ED2123"/>
<path d="M22.0706 56.2671C21.5105 55.9821 20.7968 56.578 20.2655 56.1052C19.4841 56.8015 18.4885 55.9722 17.6045 56.4404C16.6407 56.5286 15.6504 55.8841 14.7862 56.5233C14.0702 56.2975 13.4523 56.5362 12.7112 56.3789C12.3388 56.0194 11.7946 56.4404 11.3766 56.2086C10.9699 55.7754 10.6119 56.3492 10.2045 56.3447C9.25067 56.3074 8.30059 56.2975 7.46908 56.5088C7.05409 56.391 6.6657 56.1007 6.2013 56.2231L6.05157 56.467C5.22462 56.2975 4.20766 56.6031 3.57301 55.9601C2.44963 55.0624 1.476 53.8486 1.46079 52.4037C1.25178 51.7539 1.80434 51.0767 1.30954 50.518C1.16361 49.46 1.35819 48.4902 1.21073 47.4709C1.42051 47.3258 1.14613 47.1342 1.28522 46.9594C1.48056 46.1492 1.11269 45.3595 1.15601 44.5667C1.28522 43.9541 1.0154 43.2769 1.20161 42.7358C1.27154 42.662 1.4874 42.7038 1.51172 42.5336C1.5216 42.3048 1.4874 42.0783 1.3027 41.9825L2.86311 41.3281C2.74682 42.5784 3.16789 43.8044 2.89503 45.0889C2.61077 45.1482 2.54768 45.4066 2.59557 45.6719L2.82435 45.9523L2.85779 47.5994C2.82967 47.6116 2.80002 47.5842 2.78634 47.5553C2.68069 48.0129 2.83423 48.5441 2.85779 49.0412C2.74682 49.1697 2.74986 49.3567 2.71186 49.514L2.89731 49.6371C3.10177 50.6267 3.00904 51.7493 3.55096 52.6006C4.26086 52.7724 3.88767 53.9421 4.77998 53.8258C5.02244 53.9489 4.84307 54.237 4.87575 54.3776C5.23146 54.5426 5.53701 54.8306 6.01584 54.6946C6.20662 54.4073 6.6657 54.5844 6.95072 54.6087C8.31731 54.8352 9.77511 54.8504 11.1546 54.88C11.3644 54.934 11.8577 54.7516 12.2157 54.8603C13.2258 55.0077 14.2671 54.6186 15.265 54.9537C15.4938 55.0077 15.4436 54.7128 15.6131 54.6778C17.644 54.8504 19.7388 54.6284 21.6845 54.8724C21.816 54.8694 21.8479 55.0959 22.0015 55.0229" fill="#ED2123"/>
<path d="M45.0009 4.7371C45.0701 5.25926 45.0944 5.82626 45.4242 6.18957C48.5405 5.98512 51.5701 6.43583 54.5929 6.47612C54.8513 6.57265 55.2055 6.69274 55.2693 7.00284C55.4365 7.56757 54.757 7.66637 54.5062 7.99624L53.886 8.17942C52.2792 7.85487 50.6474 7.81763 49.052 7.56529C47.7797 7.60329 46.4853 7.40187 45.2129 7.68081C42.5056 7.57745 40.0955 8.33447 37.4003 8.4576C36.5885 8.76998 37.0066 9.82571 36.9602 10.4908C36.9974 11.6126 37.721 12.4069 38.1634 13.3349C38.3063 14.7205 38.6407 16.0187 38.4271 17.399C38.548 17.7934 38.5966 18.2031 38.4195 18.5733C38.1634 19.1334 37.4497 19.5013 37.2726 20.0858C36.3005 20.9827 35.3382 21.9251 33.9329 21.8385C33.1576 22.0528 32.1528 22.0718 31.5037 21.574C30.6692 20.9104 30.9572 19.686 30.584 18.7678C30.7748 18.3825 30.7505 17.7744 31.316 17.6642C31.636 17.5145 32.0897 17.4218 32.4462 17.5555C33.0884 17.8558 33.581 18.9525 34.4201 18.3392C35.2615 18.0549 35.7859 17.1953 36.1849 16.4618C36.5513 15.0656 36.5733 13.2939 35.8969 12.0002C35.6385 11 35.2615 10.0575 34.905 9.08541C34.9742 8.24782 35.171 7.4642 35.8847 6.86983C36.5171 6.58709 37.1669 6.46168 37.8761 6.56276C39.5224 6.59925 41.1071 6.39859 42.8058 6.31042C43.1159 6.0482 42.9578 5.52604 43.2094 5.21138C43.4306 4.82374 43.3918 4.3411 43.7825 4.02112C44.3465 3.84022 44.7105 4.38671 45.0009 4.7371Z" fill="#ED2123"/>
<path d="M22.1581 6.24454C22.2272 6.68309 22.2759 7.20753 21.9437 7.5374C21.7218 7.79658 21.3493 7.70689 21.0871 7.86651C20.492 8.03448 20.1621 8.62125 19.6582 8.95568C19.0312 9.5356 18.8966 10.5047 19.1513 11.2381C19.7646 12.1175 20.7846 12.7218 21.5462 13.4294C21.7628 13.4986 21.9939 13.7631 22.1535 13.9561C23.4008 14.6265 24.2627 16.0288 25.6863 16.2857C26.5292 16.6369 27.4557 16.8322 28.3959 16.969C28.5806 17.0214 28.7235 17.2023 28.8405 17.3566C28.7159 18.2816 27.6404 18.2892 27.1433 18.9923C26.1225 19.7638 24.6412 20.0328 23.3552 19.6627C22.456 19.3526 22.1983 18.4656 21.5204 17.856C20.4472 16.5981 19.0912 15.5477 18.2719 14.1887C16.9919 13.1071 16.5055 11.4593 16.8118 9.7925C17.2975 7.78442 19.3223 6.87995 20.9359 6.02868C21.3493 6.10316 22.0038 5.63649 22.1581 6.24454Z" fill="#ED2123"/>
<path d="M11.8881 8.1599C12.7143 9.1077 13.8794 9.90652 13.7479 11.2693C14.1994 12.4094 13.637 13.5563 12.9468 14.4486C12.2331 14.9442 11.5833 15.7354 10.7966 16.1345C10.4508 16.6232 9.85414 16.6201 9.55163 17.1104C8.96183 17.3468 8.37202 17.5862 7.80957 17.8811C6.63832 18.1577 5.32265 19.1337 4.13316 18.347C3.84205 18.0422 3.90894 17.7861 3.99863 17.4022C4.42806 16.0455 5.91702 15.9878 6.93778 15.3888C8.73837 14.5163 11.3309 14.4365 12.0066 12.0415C12.0424 11.6585 12.0766 11.1751 11.9413 10.8239C11.4297 10.1817 10.691 10.0677 10.184 9.49609C9.30765 8.84775 7.81489 9.32887 7.30793 8.17738C7.14148 7.72666 7.39154 7.33751 7.51239 6.95292C7.88482 6.55009 8.42294 6.4262 8.96411 6.54401C10.0198 6.87767 10.9798 7.45228 11.8881 8.1599Z" fill="#ED2123"/>
<path d="M14.5118 18.416C14.3347 18.66 14.4381 19.0127 14.2169 19.2437C13.9547 19.8928 13.0981 19.797 13.0646 20.5571C13.5792 21.4395 14.6091 21.9161 15.1928 22.7978C15.5097 23.1033 15.8297 22.7149 16.1262 22.6245C16.6529 22.0894 17.2351 21.3962 17.1074 20.605C17.0443 20.2516 16.7243 19.9605 16.4241 19.797C15.7514 19.4132 15.1594 18.7337 14.4593 18.4335L14.9929 17.2888L15.1594 17.3823C16.8551 17.1224 18.2087 18.1736 19.1292 19.4603C19.7068 19.9749 19.8201 20.7395 19.8322 21.4471C19.3032 22.604 18.5409 23.6711 17.8986 24.7709C17.0785 25.7825 15.7537 26.0212 14.5847 25.7438C13.4135 25.2725 12.5577 24.3377 11.6311 23.4051C11.0353 22.5964 10.1407 21.8887 9.93773 20.9007C9.81612 19.6861 11.1341 19.0081 11.9299 18.3947C12.7165 17.2022 14.0557 16.639 14.4958 15.3256C14.7436 15.0231 15.23 15.1698 15.4041 15.4632C15.4968 15.7307 15.2703 15.9633 15.1768 16.2042L15.0438 17.2714" fill="#ED2123"/>
<path d="M45.1826 22.0875C45.2669 22.808 45.2373 23.4617 44.595 23.9002C44.0562 23.9094 43.4603 23.8805 43.2095 23.3021C43.059 22.3543 42.983 21.2377 43.6647 20.5142C44.5038 20.7277 44.6049 21.5608 45.1826 22.0875Z" fill="#ED2123"/>
<path d="M48.4965 21.1575C48.9069 21.8575 49.8448 22.6221 49.1653 23.4985C48.843 23.69 48.4318 23.823 48.0336 23.7197C47.1815 23.3678 47.3146 22.3174 47.1724 21.5094C47.2066 21.1826 47.1869 20.8292 47.4628 20.5981C47.8907 20.5753 48.1514 20.9804 48.4965 21.1575Z" fill="#ED2123"/>
<path d="M41.019 21.5889C41.0045 22.4523 41.117 23.5993 40.1274 23.9884C39.2313 23.9322 38.3435 25.5253 37.6268 24.2347C37.3418 23.5445 37.9985 23.0482 38.4591 22.618C39.2267 22.2593 39.926 21.5669 40.379 20.8934C40.8213 20.8243 40.8289 21.3487 41.019 21.5889Z" fill="#ED2123"/>
<path d="M54.8308 22.4956C55.8158 22.6902 56.5539 23.4571 57.6293 23.4214C57.9448 23.527 57.9372 23.8402 57.7555 24.0416C57.3861 24.674 56.6625 24.7294 56.2491 25.2881C55.7125 25.415 55.0824 26.0215 54.5359 25.4796C53.975 25.7441 53.4528 25.3595 52.8896 25.3838C52.5841 25.1072 52.6775 24.6656 52.2762 24.4171C51.8339 23.6456 51.4888 22.8156 51.4447 21.8534C51.3558 21.5433 51.2623 21.1754 51.3558 20.8334C51.9859 20.5233 52.6608 20.9785 53.167 21.3084" fill="#ED2123"/>
<path d="M56.2643 27.5994L56.3327 27.5576L56.3798 27.5994" fill="#ED2123"/>
<path d="M49.7369 32.3776C50.0637 33.2501 49.5271 33.998 49.5005 34.7794C49.3918 35.0925 49.2839 35.4072 49.2884 35.7629C51.0753 35.6694 52.8721 36.1581 54.5777 35.6595C54.979 35.7925 55.4198 35.8564 55.7246 36.2585C55.8158 36.6142 55.4487 36.7753 55.3431 37.0474C54.7381 37.3279 53.9476 37.5574 53.281 37.3704C50.5585 37.5642 47.7774 37.4487 45.2251 38.1084C44.4446 38.0963 43.5241 38.1723 43.1677 37.3256C43.059 36.9463 43.4527 36.7533 43.7065 36.6218C44.0736 36.4432 44.5996 36.6316 44.8778 36.244C45.3582 36.2364 45.8773 35.9552 46.3599 35.9316C46.8912 35.7652 47.5806 35.4551 47.6984 34.8151C48.0184 33.8012 47.3784 32.8769 47.5266 31.8387C47.652 31.6244 47.8755 31.4777 48.0701 31.3621C48.7936 31.3477 49.2983 31.8189 49.7369 32.3776Z" fill="#ED2123"/>
<path d="M10.0396 36.413C10.0556 35.6453 8.99299 34.9643 9.57064 34.2004C10.2653 34.0895 11.3005 33.2747 11.7999 34.2285L11.9854 35.7981L13.9494 35.4773C13.7282 34.9559 13.9851 34.2863 13.8315 33.6783C14.5034 33.2982 15.4391 33.207 16.2204 33.4039C15.9582 33.9458 16.6141 35.2683 15.9027 35.4484L18.3296 35.3641C18.0902 34.7173 18.3729 33.9025 18.8746 33.467C19.8566 33.6463 21.268 33.223 21.6412 34.392C21.5682 34.9339 21.5682 35.5564 21.0749 35.8498L22.9918 37.3357C23.0503 36.0877 23.6394 35.0129 24.217 34.0241C24.4815 33.0261 23.3703 32.7913 22.7805 32.3626C20.21 32.1156 17.5931 31.7561 14.8592 31.8077C13.5693 32.0046 12.2255 32.0168 10.9532 32.1969C9.86631 32.4857 8.6008 32.3702 7.75485 33.1949C7.25017 33.5452 7.53064 34.1624 7.3847 34.6185C7.94183 35.2896 8.23597 36.0633 8.35834 36.9199" fill="#ED2123"/>
<path d="M40.1768 34.493C41.0684 34.3493 42.077 34.455 42.7025 35.1809C42.6136 35.8489 41.7615 35.6795 41.2994 35.9599C41.0311 36.0352 40.7773 36.1408 40.477 36.1743C39.9655 37.2475 39.9876 38.5221 39.926 39.7845C40.8145 40.2079 42.0131 39.9297 42.7223 40.7103C42.7709 41.0082 42.6356 41.3229 42.3529 41.4263C41.7372 41.7364 40.9422 41.6383 40.3638 42.0024L39.7291 42.0594C39.4776 42.9578 39.8074 44.0432 39.6752 45.0373C40.6321 45.5291 42.4661 44.9408 42.5642 46.47C41.7646 47.5623 40.2802 47.0378 39.1386 47.316C38.2273 47.2894 37.4452 47.9043 36.5247 47.8062C35.865 48.2592 35.0084 48.6013 34.2233 48.3892C33.4921 47.9195 33.9276 47.0477 33.7877 46.3712C34.0013 45.7138 34.2552 45.0738 34.6884 44.5106C34.7279 43.6023 34.9149 42.4797 34.6048 41.576C34.6565 40.7665 34.7127 39.9594 34.9392 39.216C35.1908 39.0146 35.4804 38.7782 35.8399 38.9158C36.1553 39.1225 36.5985 39.3688 36.7064 39.7625C37.1396 40.8182 36.0763 41.5319 36.4206 42.5907C36.3127 43.499 36.3568 44.3654 36.4312 45.3003C36.7018 45.4926 37.2133 45.3991 37.5683 45.3474C37.9225 44.7736 37.6861 44.1139 37.8389 43.4693C37.9719 41.3548 38.1444 39.2533 37.6785 37.2064C37.585 36.8819 37.5652 36.514 37.1936 36.3498C36.4138 36.2822 35.7145 36.1667 35.0426 36.5923C34.6192 36.5284 34.2552 36.1264 34.0066 35.7904C33.8417 35.4096 34.1222 35.1352 34.186 34.8077C34.487 34.2908 35.1832 34.3759 35.7046 34.1829C37.1845 33.815 38.6856 34.3949 40.1768 34.493Z" fill="#ED2123"/>
<path d="M50.9621 39.258C51.0282 40.506 51.0951 41.7388 51.1202 43.0142C52.9215 45.207 54.8361 48.783 58.1659 48.8355C58.8432 48.7929 59.5173 49.0369 60.1649 48.8644C60.3792 48.9753 60.4279 49.2581 60.288 49.4131C59.0355 51.2814 56.8594 51.7093 54.9737 52.4534C54.0046 52.7437 53.1921 52.049 52.5324 51.3657C52.41 50.9416 51.9638 50.6566 51.7989 50.2477C51.0487 48.9282 50.1298 47.6688 49.4116 46.3394L49.1851 46.3835C47.915 47.402 46.0346 48.3749 44.4271 47.4537C44.3222 47.1291 43.9231 46.9543 43.9726 46.5553C43.6374 46.2802 43.7704 45.7094 43.8342 45.3521C44.8383 45.3202 45.6827 44.8915 46.6449 44.7441C47.1078 44.6513 47.5608 44.4613 47.8808 44.1391C46.7635 42.9868 45.3604 42.2047 43.7704 42.0664C43.5682 41.9288 43.4055 41.6605 43.5142 41.4021C44.1595 41.0084 44.7547 40.2597 45.6264 40.4125C46.9702 40.4862 48.1042 41.1437 49.2512 41.7616C49.6381 41.1285 49.4389 40.4224 49.5248 39.6691C49.4169 39.3887 49.3226 38.9083 49.5742 38.6499C50.088 38.7236 50.7356 38.64 50.9621 39.258Z" fill="#ED2123"/>
<path d="M6.31226 71.3872H0.994873V73.4425H7.80046H7.51696H14.3226V71.3872H9.00744V61.8895H14.3226V59.832H7.51696H7.80046H0.994873V61.8895H6.31226" fill="#221E1F"/>
<path d="M36.4707 67.6637L37.7104 64.6539L38.9516 67.6683L39.7709 69.7212L40.477 71.3872H38.9166V73.4425H44.9447V71.3872H43.312L39.6972 61.8895H44.307V59.832H31.1207V61.8895H35.7266L32.1141 71.3872H30.483V73.4425H36.5095V71.3872H34.9491L35.6331 69.7189L35.6233 69.7212H39.7709L38.9516 67.6683" fill="#221E1F"/>
<path d="M52.7049 73.5162H48.7518C47.5486 73.5162 46.1995 72.7516 46.1995 71.331V62.0126C46.1995 60.5951 47.5486 59.832 48.7518 59.832H52.7049H52.6357H56.5858C57.7897 59.832 59.1388 60.5951 59.1388 62.0126V65.4337H56.1426V63.3268C56.1426 62.1525 55.4662 61.8895 54.3193 61.8895H51.0214C49.8691 61.8895 49.1949 62.1525 49.1949 63.3268V70.0214C49.1949 71.1934 49.8691 71.4595 51.0214 71.4595H54.3193C55.4662 71.4595 56.1426 71.1934 56.1426 70.0214V67.9145H59.1388V71.331C59.1388 72.7516 57.7897 73.5162 56.5858 73.5162H52.6357" fill="#221E1F"/>
<path d="M22.3671 73.5162H18.4155C17.2108 73.5162 15.8647 72.7516 15.8647 71.331V62.0126C15.8647 60.5951 17.2108 59.832 18.4155 59.832H22.3671H22.2971H26.251C27.4534 59.832 28.7995 60.5951 28.7995 62.0126V65.4337H25.8079V63.3268C25.8079 62.1525 25.1322 61.8895 23.9807 61.8895H20.6835C19.532 61.8895 18.8586 62.1525 18.8586 63.3268V70.0214C18.8586 71.1934 19.532 71.4595 20.6835 71.4595H23.9807C25.1322 71.4595 25.8079 71.1934 25.8079 70.0214V67.9145H28.7995V71.331C28.7995 72.7516 27.4534 73.5162 26.251 73.5162H22.2971" fill="#221E1F"/>
<path d="M20.8682 44.941L20.7846 44.8726C19.4256 44.3459 18.2308 43.3761 16.8308 42.9086C15.9788 43.5927 15.1419 44.1688 14.4457 44.9464H14.5605C14.9116 44.8111 15.3836 44.976 15.4163 44.5086C15.6762 43.9522 16.076 43.4354 16.7274 43.3806C17.4274 43.563 16.8452 44.2965 17.264 44.6735C18.4444 44.8187 19.6255 45.0961 20.8682 44.941L22.2158 45.6897C22.0372 47.393 21.8578 49.0864 22.2014 50.7084L19.8444 49.2316L19.8999 47.6978L19.9022 47.713C19.8421 47.4295 20.2176 47.1171 19.9303 46.9544L19.4621 46.8366C18.1054 46.3517 16.4097 46.674 14.9474 46.7013C14.4214 46.4992 13.9745 46.9499 13.466 47.0137C13.1992 47.0776 13.1756 47.3877 13.2091 47.6438C15.1518 47.5891 17.1576 47.2258 18.9643 47.6461C19.2501 47.6119 19.6232 47.8604 19.9022 47.713L19.8444 49.2437C19.3276 49.4801 18.978 49.0051 18.4854 49.0712C17.6098 49.3448 16.5959 48.9678 15.6185 48.9998C14.8592 49.357 13.8035 49.0074 13.1179 49.5318C13.1939 49.7135 12.9849 49.8883 13.1711 50.041C13.6522 50.073 14.1637 50.0631 14.6205 50.1695C16.2653 49.5143 18.0195 50.1049 19.7487 49.9818L19.8589 49.9134C19.8566 49.6815 20.0337 49.411 19.8444 49.2316L22.2014 50.7084C22.4507 51.1439 21.9034 51.454 21.8282 51.85C20.888 52.3646 20.0109 51.7443 19.0456 51.7497C17.6775 51.4342 16.2965 51.774 14.8926 51.717C14.2793 51.6706 13.7883 51.9366 13.3246 52.2437C12.8868 52.1381 12.4224 52.3866 12.0743 51.9952C11.4366 51.2298 11.071 50.0312 11.5499 49.0712C11.749 48.4464 11.3591 47.9836 11.0946 47.5062L10.8088 47.5138C9.25981 48.7786 7.28061 49.0568 5.73236 50.3215C5.36449 50.3124 4.88642 50.5898 4.67892 50.1003C4.7344 49.3319 4.20312 48.2519 5.21704 47.9342C7.48051 47.5207 9.32518 46.1397 11.1546 44.7275C12.0333 44.0723 12.9712 43.4848 13.7814 42.7186C13.4903 42.4556 13.1278 42.7756 12.8002 42.6251C11.4245 42.5636 10.2144 43.0857 8.88282 43.2111C7.6538 43.4202 6.25681 45.2762 5.09239 43.6687C5.2444 42.0642 7.09135 42.2535 8.11516 41.5838C9.30161 41.4022 10.371 40.9294 11.54 40.693C12.5532 40.8998 13.4934 40.4004 14.4738 40.4377C14.5217 40.1124 14.8691 39.6206 14.451 39.3743C13.2912 39.4975 12.1625 39.6746 11.0589 39.9109C10.9023 39.8539 10.7313 39.7726 10.6576 39.6054C10.5474 39.1524 10.7685 38.8203 11.033 38.5048C11.4245 38.3399 11.86 38.1339 12.3168 38.2099L12.4703 38.0496C13.1779 37.9659 13.9327 38.0108 14.5795 37.8139C14.6851 37.5426 14.638 37.2158 14.9169 37.0113C13.3847 37.0691 11.8752 37.4111 10.5542 38.045C10.295 38.52 9.79641 38.4433 9.34494 38.4957C8.96947 38.2464 8.44274 38.1142 8.4207 37.5776C8.4093 37.3533 8.38954 37.1344 8.35914 36.9201L10.0396 36.4131C10.7609 36.2269 11.3257 36.1084 11.9854 35.7983L13.9494 35.4775L15.5098 35.4486C15.674 35.4729 15.8017 35.4707 15.9027 35.4486L18.3296 35.3643C19.2979 35.5307 20.1621 35.5687 21.075 35.8492L22.9926 37.3359C22.6574 37.668 22.0752 37.6391 21.6313 37.4765C21.075 37.218 20.4213 37.218 19.8125 37.0858C18.4885 36.9421 17.1675 36.8122 15.7796 36.8388C15.9408 37.1344 16.5632 37.1641 16.5055 37.6878C17.1173 37.9614 17.8842 37.8899 18.5386 38.045C19.2166 38.0207 19.8201 38.1658 20.4289 38.3209C20.5125 38.9434 19.659 38.8917 19.2698 39.1668C19.2166 39.3249 19.0889 39.4405 18.9202 39.4427C18.1434 39.4724 17.3871 39.3173 16.6484 39.3318C16.4272 39.6206 16.4371 40.0432 16.5131 40.3981C16.7875 40.6193 17.1964 40.4422 17.4928 40.3784C19.4788 39.7042 21.287 38.6606 23.5262 38.5763C23.8173 38.9358 23.2069 38.9753 23.0709 39.2482C22.7251 39.667 22.738 40.3335 22.1147 40.516C21.4983 40.6832 20.9359 40.9933 20.4046 41.3725C21.7826 42.2953 23.3787 42.6327 24.8776 43.2552C26.0724 43.4452 27.5948 43.7994 28.8367 43.2925C29.0062 43.3859 29.3004 43.2408 29.3794 43.4794C29.1681 44.3626 28.066 44.5694 27.6548 45.3127C27.686 45.3842 27.7681 45.4389 27.7308 45.5392C27.0635 46.1891 25.8786 45.8721 25.4142 46.7629C24.154 46.8853 23.1917 46.2803 22.2158 45.6897" fill="#ED2123"/>
<path d="M44.6665 17.3702C44.5776 17.2714 44.6315 17.1148 44.6148 16.9856L44.4271 15.4161L44.418 14.8361L44.703 13.4551C44.5282 13.3715 44.4005 13.2339 44.4544 12.9907L44.8216 11.5603C44.8261 11.0632 44.5236 10.7158 44.2158 10.3525C44.253 10.1534 44.2948 9.86912 44.1595 9.68671C43.4481 9.41765 43.2383 8.20307 42.2981 8.63098C41.4499 9.51341 40.1715 9.3956 39.1454 9.86912C39.02 10.0835 38.8429 10.2879 38.9318 10.5813C39.0542 11.0206 39.5224 10.9393 39.8766 10.9879C40.8419 10.9705 41.7425 10.1154 42.6926 10.7356C42.8249 10.9446 42.9313 11.2266 42.8644 11.485C42.2123 11.539 41.3587 11.387 40.7552 11.6811C40.2407 12.1447 38.7737 11.9327 39.1629 12.9595C39.2792 13.1275 39.4092 13.3517 39.6501 13.3061C40.6648 12.8881 41.9295 12.9337 43.0468 12.8402L43.1623 12.9694C43.138 13.1663 43.2414 13.4315 43.1008 13.5919L41.5305 13.6671C41.0212 13.6307 40.5705 13.9818 40.1715 13.8906C40.1867 13.8617 40.2163 13.8458 40.2019 13.8062C40.189 13.9043 40.0339 14.0077 39.8918 13.9674C39.6402 14.1711 38.9904 14.3254 39.1979 14.8012C39.4038 15.0527 39.6919 15.4161 40.0757 15.3811C40.8069 15.0132 41.171 14.9897 42.023 14.9463C42.3924 14.9099 42.8842 14.8012 43.2041 14.995C43.1798 15.1789 43.2809 15.4183 43.1403 15.5475C42.663 15.6707 42.0945 15.6676 41.6582 15.733C41.6141 15.9055 41.4172 15.752 41.4172 15.7786C40.8419 16.0887 39.9556 15.809 39.5885 16.5257C39.3103 16.8146 39.6113 17.1627 39.7611 17.4143C39.9359 17.5245 40.1031 17.548 40.2703 17.4477C40.6693 17.6947 40.9794 17.2911 41.3754 17.3109C41.9538 17.3291 42.5596 16.9058 43.1699 17.0798C43.2611 17.2888 43.1943 17.5336 43.0544 17.7046" fill="#ED2123"/>
<path d="M48.0282 17.546C49.4017 17.2914 50.8245 17.6189 52.2663 17.3924L52.2861 17.1067C52.242 16.9235 52.0011 16.9014 51.8582 16.8049C50.465 16.6035 49.1387 16.9714 47.7083 16.8855L47.595 17.001L47.8314 15.3509C49.3082 15.4771 50.8587 15.6458 52.3454 15.5044C52.3948 15.278 52.4168 14.9504 52.1729 14.7976L51.2669 14.8166C50.1602 14.6798 49.0422 15.0857 47.8633 14.9245L47.7523 14.9975L47.8785 13.415C48.2646 13.561 48.6781 13.6241 49.1288 13.5899C50.519 13.5488 52.0475 13.39 53.4353 13.4629C54.1566 14.0451 53.8906 14.9557 54.0335 15.7332C54.2205 15.8442 54.4766 15.9529 54.5557 16.19C54.6438 16.4013 54.5777 16.6438 54.4378 16.8171C54.2303 17.0033 53.8465 16.9136 53.7089 17.2283C53.921 17.777 53.6991 18.2072 53.6527 18.7484C53.1032 19.6073 51.9714 18.965 51.1688 19.1482C49.5887 19.0228 48.102 19.0684 46.5416 18.927" fill="#ED2123"/>
<path d="M44.6665 17.3702C45.0944 17.5146 45.6409 17.2357 46.1137 17.4249C46.2216 17.2691 46.1927 17.1126 46.1433 16.9157C45.6014 16.769 45.1294 17.0768 44.6148 16.9856L44.4271 15.4161L46.3029 15.4229C46.4853 15.3332 46.4481 15.1508 46.4481 14.995L46.3303 14.6849C45.6873 14.612 45.0845 14.8362 44.418 14.8362L44.703 13.4551L46.1433 13.354L46.1775 12.7597C45.5961 12.727 44.9713 12.6837 44.4544 12.9907L44.8216 11.5603C45.3354 11.7336 45.8697 11.5094 46.426 11.5702C46.9056 10.7957 46.8448 9.819 47.3267 9.04222C47.4597 8.71463 47.6049 8.21527 48.048 8.16511C48.4835 8.04198 48.6903 8.45013 48.8795 8.74428C49.9383 9.347 51.1939 9.4937 52.2793 10.0379C52.4685 10.2621 52.5894 10.5601 52.4929 10.8572C52.0596 11.1772 51.5458 10.9173 51.1171 10.7714C50.3472 10.6421 49.5887 10.2621 48.7572 10.5471L48.1514 11.4516C48.7002 11.8947 49.6137 11.5527 50.31 11.6926C51.2258 11.9449 52.5278 11.026 53.1822 12.1068C53.2613 12.3584 52.9656 12.5362 52.7984 12.6229C51.6538 12.8174 50.411 12.4845 49.2664 12.6905C48.7617 13.0698 47.573 12.2307 47.8785 13.4141L47.7524 14.9973C47.7083 15.1387 47.8018 15.2367 47.8314 15.35L47.595 17.0008C47.7676 17.168 47.6619 17.5937 48.0283 17.5458L46.5416 18.9268C44.8459 19.2726 42.8355 18.8006 41.2941 19.6246C40.7134 19.6504 40.1031 19.7462 39.6258 19.8837H39.5809C39.1979 19.8951 38.8133 19.6603 38.7471 19.2772C38.5678 18.8691 38.9904 18.7756 39.2024 18.6023C39.7679 18.5757 40.2019 18.2283 40.7233 18.0626C41.4127 17.7502 42.3058 17.7776 43.0544 17.7046" fill="#ED2123"/>
<defs>
<clipPath id="clip0_1128_2">
<rect width="162.947" height="54" fill="white" transform="translate(91.1304 10)"/>
</clipPath>
</defs>
</svg>
