<svg width="220" height="73" viewBox="0 0 220 73" fill="none" xmlns="http://www.w3.org/2000/svg">
<g clip-path="url(#clip0_295_1845)">
<path d="M81.3941 19.4111L82.1736 20.7633C80.6082 21.0389 78.8025 21.2439 76.7499 21.3721V22.7371H83.5117V24.0829H78.5037C79.1207 24.6212 79.6858 25.0121 80.1925 25.2684C80.9979 25.7106 82.1281 26.1208 83.5766 26.5053L82.8621 28.0305C82.3425 27.819 81.8683 27.6267 81.4396 27.4665V34.4389H79.9716V33.6507H72.1057V34.4389H70.6572V27.537C70.2285 27.7165 69.7933 27.9087 69.3516 28.101L68.4553 26.6206C70.261 25.999 71.5341 25.4415 72.2681 24.948C72.6643 24.7237 73.0345 24.4353 73.3853 24.0829H68.6306V22.7371H75.217V21.4362C73.6191 21.5003 71.9043 21.5323 70.0661 21.5323L69.5855 20.1032C74.2297 20.1032 78.1659 19.8725 81.3877 19.4111H81.3941ZM71.5536 27.0564H75.2235V24.0829H75.1131C74.6129 24.7814 74.0673 25.371 73.4697 25.8644C72.9566 26.2617 72.32 26.6591 71.5536 27.05V27.0564ZM72.1122 29.6069H79.9781V28.4662H72.1122V29.6069ZM72.1122 32.3049H79.9781V30.9527H72.1122V32.3049ZM76.7564 27.0564H80.5822C79.9002 26.7552 79.3416 26.454 78.9064 26.14C78.2504 25.7106 77.5489 25.0249 76.8149 24.0829H76.7499V27.0564H76.7564Z" fill="#343741"/>
<path d="M88.9548 23.3459C89.9031 23.7881 90.7735 24.3072 91.5725 24.9224L90.5852 26.4155C89.7992 25.6658 88.9808 25.0634 88.1299 24.6148L88.9613 23.3459H88.9548ZM90.3253 27.3255L91.0918 27.8703C92.261 27.2807 93.0859 26.7488 93.5666 26.2617C93.8199 26.0182 94.0732 25.717 94.3135 25.3646H91.7478V24.0188H94.1252V22.3975H92.1506V21.0645H94.1252V19.4111H95.6581V21.0645H98.607V19.4111H100.075V21.0645H102.595V22.3975H100.075V24.0188H102.991V25.3646H99.8801C100.276 25.858 100.64 26.2041 100.978 26.4091C101.497 26.8257 102.231 27.2294 103.18 27.6139L102.491 29.043C101.536 28.5624 100.776 28.101 100.211 27.6588V30.9848H94.9826V32.2024C94.9826 32.542 95.1709 32.715 95.5542 32.715H100.101C100.406 32.715 100.634 32.6381 100.77 32.4715C100.952 32.3305 101.069 31.6384 101.121 30.3824L102.524 30.863C102.394 32.4267 102.166 33.3495 101.835 33.6378C101.549 33.9262 101.036 34.0736 100.302 34.0736H94.9891C94.5409 34.0736 94.1836 33.939 93.9043 33.6699C93.638 33.3943 93.5081 33.0355 93.5081 32.5933V28.2548C93.0274 28.6393 92.4753 29.011 91.8518 29.3634L91.501 28.7546C90.871 30.9463 90.1889 32.8624 89.442 34.4902L88.2273 33.1444C88.8899 31.7858 89.5849 29.8441 90.3188 27.3127L90.3253 27.3255ZM89.5914 19.4752C90.4942 19.8789 91.3256 20.3724 92.0791 20.9363L91.0918 22.4487C90.3448 21.7438 89.5719 21.1734 88.7664 20.7441L89.5979 19.4752H89.5914ZM94.9826 28.101V29.6903H98.7304V28.101H94.9826ZM95.015 26.8193H99.2241C98.8863 26.422 98.555 25.9413 98.2368 25.3774H95.8594C95.6126 25.9221 95.3333 26.4027 95.015 26.8193ZM95.6516 24.0252H98.6005V22.4039H95.6516V24.0252Z" fill="#343741"/>
<path d="M122.023 19.6547V34.2659H120.62V33.734H109.649V34.2659H108.259V19.6547H122.023ZM109.643 32.4523H120.614V20.9556H109.643V32.4523ZM115.593 28.9341V30.1901C114.144 30.5618 112.442 30.9335 110.487 31.2988L110.169 29.8825C112.02 29.7031 113.826 29.3827 115.593 28.9341ZM110.234 22.782H115.463C115.45 22.3013 115.443 21.8015 115.43 21.2888H116.755C116.755 21.8207 116.768 22.3206 116.801 22.782H118.301C118.139 22.3654 117.963 21.9681 117.762 21.5964L118.944 21.2247C119.21 21.6285 119.457 22.0963 119.678 22.6218L118.99 22.782H120.152V24.0188H116.853C116.898 25.057 116.976 25.9157 117.093 26.5886C117.177 27.1461 117.281 27.6524 117.411 28.1138C117.931 27.2871 118.451 26.0823 118.977 24.4994L120.048 25.2236C119.314 27.191 118.645 28.6393 118.041 29.5621C118.022 29.5941 118.002 29.6134 117.996 29.6262C118.015 29.6903 118.041 29.7479 118.074 29.8056C118.353 30.3183 118.593 30.5746 118.808 30.5746C118.912 30.5746 119.055 29.9402 119.236 28.6777L120.51 29.639C120.159 30.8566 119.899 31.5679 119.73 31.7602C119.542 32.0165 119.288 32.1447 118.983 32.1447C118.528 32.1447 118.061 31.8371 117.593 31.2283C117.431 31.0489 117.294 30.8566 117.177 30.6643C116.658 31.2411 116.047 31.7794 115.346 32.2665L114.566 31.1898C115.372 30.6131 116.041 30.0043 116.56 29.3763C116.359 28.7867 116.164 28.1587 115.989 27.4794C115.774 26.5886 115.625 25.4351 115.541 24.0124H110.247V22.7756L110.234 22.782ZM110.747 24.8391H114.625V28.6457H110.747V24.8391ZM113.488 27.5563V25.9477H111.877V27.5563H113.488Z" fill="#343741"/>
<path d="M127.603 19.9751H132.117V21.1158C131.968 21.6925 131.805 22.2757 131.636 22.8653C132.188 22.3975 132.656 21.8912 133.039 21.3529C133.39 20.8915 133.708 20.2058 133.994 19.2958L135.267 19.4432C135.202 19.7187 135.131 19.9687 135.046 20.1801H137.326C137.677 21.1863 138.19 22.1668 138.872 23.1216C139.242 22.6794 139.645 22.1347 140.087 21.4682H138.138V20.1865H141.711V21.3913C141.146 22.4295 140.509 23.3587 139.795 24.1854C140.399 24.8839 141.107 25.544 141.919 26.1784L141.042 27.396C140.392 26.9026 139.827 26.4091 139.353 25.9157V26.8129H134.325V26.2681C133.871 26.6847 133.345 27.1012 132.76 27.5178L131.883 26.4284C132.552 26.0118 133.117 25.6145 133.572 25.2428C133.293 24.9736 132.987 24.7109 132.65 24.4546L133.416 23.7176C133.78 23.9739 134.105 24.211 134.403 24.4225C134.507 24.2944 134.611 24.179 134.709 24.0701C134.774 23.9932 134.845 23.9163 134.929 23.8265C134.579 23.5253 134.221 23.269 133.858 23.0575L134.514 22.1091C134.897 22.2821 135.254 22.4808 135.585 22.7179C135.767 22.3206 135.923 21.904 136.066 21.4682H134.455C134.351 21.6925 134.221 21.8912 134.072 22.0642C133.572 22.814 132.942 23.4997 132.175 24.1213L131.519 23.269C131.337 23.8458 131.162 24.4225 130.993 24.9865C131.409 25.7683 131.695 26.454 131.857 27.0436C132.078 27.6844 132.195 28.2291 132.195 28.6841C132.175 29.5493 132.026 30.1581 131.747 30.5169C131.428 30.9591 130.759 31.177 129.74 31.177L129.278 29.6518C129.564 29.7287 129.818 29.7672 130.045 29.7672C130.272 29.7672 130.441 29.6902 130.539 29.5429C130.655 29.4019 130.714 29.1199 130.714 28.6905C130.714 28.1843 130.636 27.7165 130.493 27.2743C130.331 26.6847 130.012 25.999 129.538 25.2172C130.071 23.6727 130.441 22.3782 130.655 21.3337H129.077V34.4069H127.609V19.9879L127.603 19.9751ZM133.838 29.7543L135.098 30.3631C134.299 31.5807 133.371 32.6253 132.305 33.4969L130.948 32.5036C132 31.7345 132.961 30.8181 133.838 29.7543ZM132.656 28.0048H141.288V29.3506H137.619V32.8496C137.619 33.3943 137.489 33.7724 137.235 33.9711C137.021 34.2082 136.599 34.3235 135.962 34.3235H134.832L134.527 32.8432C134.942 32.9073 135.274 32.9393 135.514 32.9393C135.93 32.9393 136.138 32.8176 136.138 32.5676V29.3378H132.663V27.992L132.656 28.0048ZM135.079 25.5184H139.022C138.768 25.2492 138.554 25.0057 138.385 24.7814C137.813 24.0957 137.339 23.3715 136.963 22.6153C136.612 23.3844 136.248 24.0316 135.878 24.5443C135.663 24.8647 135.397 25.1915 135.079 25.5248V25.5184ZM139.418 29.8248C140.522 30.9079 141.379 31.8243 141.983 32.5869L140.691 33.5033C140.126 32.6381 139.346 31.6384 138.346 30.5169L139.418 29.8248Z" fill="#343741"/>
<path d="M155.065 19.3022C155.247 19.5777 155.409 19.8725 155.559 20.1865H161.619V21.4682H157.41L158.482 21.872C158.319 22.1603 158.138 22.4423 157.923 22.7051H161.164V23.8586H157.274V24.8198H160.417V26.9859H161.359V28.1586H160.417V30.5169H157.91C158.261 30.8566 158.664 31.1898 159.125 31.5102C159.722 31.9076 160.554 32.3305 161.632 32.7791L160.547 34.1249C159.411 33.4712 158.482 32.824 157.774 32.1831C157.611 32.0101 157.449 31.8499 157.28 31.7025V34.3812H155.877V30.5105H154.234V34.3812H152.831V32.087C152.727 32.1959 152.616 32.2857 152.493 32.3626C151.805 33.0034 150.895 33.593 149.765 34.1313L148.856 32.9585C149.836 32.542 150.655 32.087 151.33 31.5936C151.681 31.318 152.019 30.9591 152.35 30.5169H150.213V29.3762H152.831V28.1586H149.687V26.9859H152.831V25.9734H150.213V24.8198H152.831V23.8586H149.687V22.7051H152.305C152.188 22.4295 152.038 22.1539 151.856 21.8848L152.928 21.4682H149.421V25.5824C149.421 26.8962 149.317 28.2804 149.115 29.7223C148.882 31.209 148.485 32.683 147.92 34.1377L146.647 32.9842C147.18 31.805 147.537 30.5746 147.712 29.2929C147.875 27.9664 147.953 26.7296 147.953 25.5824V20.1865H153.857C153.721 19.9751 153.571 19.7572 153.409 19.5457L155.085 19.3022H155.065ZM153.851 22.7051H156.306C156.559 22.3077 156.78 21.8976 156.962 21.4682H153.357C153.539 21.8399 153.701 22.2565 153.851 22.7051ZM155.858 24.8263V23.865H154.214V24.8263H155.858ZM154.214 25.9798V26.9923H155.858V25.9798H154.214ZM154.214 28.165V29.3826H155.858V28.165H154.214ZM157.261 25.9798V26.9923H159.001V25.9798H157.261ZM157.261 28.165V29.3826H159.001V28.165H157.261Z" fill="#343741"/>
<path d="M166.543 20.2827H174.006V21.6284H171.421V25.2108H172.856C173.343 24.4482 173.753 23.6407 174.084 22.7884C174.422 22.0065 174.74 20.8466 175.039 19.3022L176.617 19.4816C176.487 20.2955 176.312 21.0325 176.091 21.6989H181.287V23.1921H179.995C179.91 25.9413 179.358 28.165 178.338 29.8569C178.254 29.9979 178.176 30.1196 178.098 30.2286C178.884 31.0873 179.962 31.9652 181.339 32.8752L180.495 34.4004C179.105 33.4776 177.981 32.5228 177.13 31.5231C176.214 32.5292 175.013 33.4904 173.525 34.4004L172.603 32.9585C174.123 32.1575 175.311 31.2603 176.175 30.2798C175.487 29.1007 174.902 27.5498 174.435 25.6209C174.136 26.1015 173.811 26.5629 173.46 27.0051L173.155 26.6334H171.414V30.6131C172.233 30.3439 173.012 30.0427 173.759 29.7159V31.2731C171.771 32.1511 169.479 32.9586 166.887 33.6955L166.406 32.1511C166.692 32.087 166.958 32.0101 167.205 31.9268V23.724H168.673V31.5423C169.121 31.4141 169.544 31.2731 169.946 31.1257V21.6349H166.536V20.2891L166.543 20.2827ZM175.376 23.7048C175.857 26.0823 176.448 27.8254 177.163 28.9405C177.968 27.537 178.436 25.6209 178.553 23.1921H175.636C175.552 23.3651 175.474 23.5253 175.396 23.6727L175.383 23.7048H175.376Z" fill="#343741"/>
<path d="M190.095 19.4111L190.589 20.6672C190.037 20.7761 189.134 20.8851 187.88 21.0068L187.958 21.7758H190.4V22.8525H188.023L188.068 23.7176H190.4V24.8711H188.153L188.218 25.8644H197.74L197.805 24.8711H195.714V23.7176H197.883L197.948 22.9165H195.714V21.8399H198.045L198.11 20.9556H195.59V19.6547H199.578L199.15 25.8708H200.221V29.0494H198.74V27.1205H187.27V29.0494H185.789V25.8708H186.828L186.458 19.8982C187.614 19.8469 188.835 19.6867 190.108 19.4175L190.095 19.4111ZM188.484 28.0369H197.786V29.2224C196.688 29.7351 195.428 30.1901 194.005 30.5874H200.098V31.8691H193.908V33.2533C193.888 33.593 193.797 33.8557 193.635 34.0416C193.356 34.3107 193.05 34.4453 192.713 34.4453H190.387L190.102 33.1636C190.667 33.1828 191.258 33.1957 191.888 33.1957C192.219 33.1957 192.381 33.0803 192.381 32.856V31.8755H186.081V30.5938H192.381V30.0299C193.304 29.8184 194.278 29.53 195.298 29.1776H188.484V28.0369ZM194.291 19.4111L195.246 20.0199C194.915 20.3852 194.59 20.68 194.272 20.9043C194.518 21.1286 194.759 21.3337 195.006 21.5131L194.161 22.3654C193.895 22.1219 193.59 21.8527 193.252 21.5644C192.7 21.8976 192.044 22.2116 191.29 22.5128L190.667 21.4362C191.232 21.2888 191.764 21.0837 192.265 20.8274C191.914 20.6031 191.544 20.3596 191.167 20.1032L191.933 19.347C192.414 19.6482 192.862 19.9366 193.291 20.2122C193.629 19.9879 193.966 19.7187 194.298 19.4111H194.291ZM194.466 22.4487L195.454 23.0447C195.051 23.4741 194.661 23.8394 194.291 24.1341C194.622 24.3905 194.921 24.634 195.187 24.8583L194.356 25.7106C194.051 25.4222 193.694 25.1146 193.284 24.7942C192.765 25.0954 192.167 25.3774 191.498 25.6465L190.861 24.602C191.375 24.4417 191.849 24.2559 192.297 24.038C191.966 23.8137 191.634 23.6022 191.29 23.3972L192.07 22.641C192.518 22.8973 192.921 23.1665 193.284 23.442C193.7 23.1408 194.09 22.8076 194.466 22.4487Z" fill="#343741"/>
<path d="M205.47 19.943H210.556V21.1286C210.192 22.3462 209.776 23.6471 209.296 25.0313C209.731 25.8003 210.043 26.4796 210.237 27.0692C210.452 27.7036 210.556 28.2355 210.556 28.6777C210.536 29.5429 210.367 30.1517 210.062 30.5105C209.698 30.9527 208.912 31.1706 207.704 31.1706L207.243 29.5941C207.529 29.6582 207.802 29.6903 208.055 29.6903C208.373 29.6903 208.614 29.6198 208.769 29.4788C208.938 29.3506 209.023 29.0814 209.023 28.6777C209.023 28.1843 208.945 27.7229 208.802 27.2935C208.614 26.7167 208.263 26.0439 207.763 25.2684C208.38 23.7176 208.802 22.4103 209.023 21.3529H206.983V34.394H205.47V19.943ZM210.828 26.6847H219.825V28.101H216.713V32.2728C216.713 32.6189 216.902 32.7855 217.285 32.7855H217.954C218.136 32.7855 218.266 32.6958 218.337 32.51C218.435 32.3497 218.5 31.5615 218.526 30.1517L219.929 30.6002C219.831 32.3241 219.649 33.3495 219.37 33.6699C219.156 33.9775 218.746 34.1377 218.142 34.1377H216.72C216.272 34.1377 215.921 34.0031 215.668 33.734C215.382 33.4648 215.239 33.1124 215.239 32.6766V28.101H214.2C214.102 29.6518 213.836 30.8822 213.388 31.7922C212.972 32.7343 211.972 33.6186 210.387 34.4389L209.315 33.1572C210.569 32.5997 211.413 31.9973 211.855 31.3436C212.335 30.6387 212.615 29.5557 212.699 28.101H210.815V26.6847H210.828ZM215.245 19.2958C215.499 19.7572 215.726 20.2634 215.914 20.821H219.519V24.4161H218.72V25.2043H211.588V24.4161H210.582V20.821H214.284C214.05 20.3596 213.81 19.9302 213.563 19.5393L215.239 19.2958H215.245ZM212.056 23.7625H218.051V22.2372H212.056V23.7625Z" fill="#343741"/>
<path d="M69.5919 40.6423H70.6182V42.9621H72.9501V40.6423H73.9828V46.3906H72.9501V43.808H70.6182V46.3906H69.5919V40.6423Z" fill="#343741"/>
<path d="M80.1795 43.4876C80.1795 45.141 79.3806 46.4739 77.5878 46.4739C75.7951 46.4739 75.0741 45.141 75.0741 43.4812C75.0741 42.0329 75.86 40.5654 77.6658 40.5654C79.3741 40.5654 80.1795 41.9047 80.1795 43.4876ZM76.1393 43.4812C76.1393 44.6988 76.633 45.6601 77.6333 45.6601C78.7115 45.6601 79.1272 44.7437 79.1272 43.494C79.1272 42.3469 78.7115 41.3856 77.6203 41.3856C76.5291 41.3856 76.1393 42.3213 76.1393 43.4812Z" fill="#343741"/>
<path d="M81.2578 46.3906V40.6423H82.5828C84.5185 44.3463 84.8108 44.9039 84.9017 45.173H84.9147C84.8562 44.4617 84.8497 43.5261 84.8497 42.5904V40.6423H85.7981V46.3906H84.5379C82.4659 42.3405 82.2645 41.9176 82.1671 41.6933H82.1606C82.1996 42.4238 82.2061 43.4107 82.2061 44.4361V46.3906H81.2578Z" fill="#343741"/>
<path d="M91.6959 46.3906H90.9294C90.8904 46.2112 90.8645 45.9549 90.8515 45.6665C90.5527 46.2689 89.9681 46.4739 89.2016 46.4739C87.6752 46.4739 86.8958 45.2115 86.8958 43.5453C86.8958 41.8791 87.8181 40.559 89.5069 40.559C90.845 40.559 91.553 41.2831 91.7089 42.2636H90.6956C90.5657 41.8086 90.2604 41.3856 89.4485 41.3856C88.3702 41.3856 87.9545 42.3725 87.9545 43.5517C87.9545 44.7308 88.3767 45.6537 89.416 45.6537C90.4552 45.6537 90.6696 44.9615 90.6696 44.1156V44.0836H89.351V43.212H91.6894V46.3842L91.6959 46.3906Z" fill="#343741"/>
<path d="M94.9761 40.6423H95.9894V43.3787C96.6194 42.6161 97.6002 41.4497 98.2563 40.6423H99.4904L97.4378 42.9814L99.6138 46.3906H98.3797L96.7233 43.6478L95.9959 44.4232V46.3906H94.9826V40.6423H94.9761Z" fill="#343741"/>
<path d="M104.804 43.4876C104.804 45.141 104.005 46.4739 102.212 46.4739C100.419 46.4739 99.6982 45.141 99.6982 43.4812C99.6982 42.0329 100.484 40.5654 102.29 40.5654C103.998 40.5654 104.804 41.9047 104.804 43.4876ZM100.763 43.4812C100.763 44.6988 101.257 45.6601 102.257 45.6601C103.336 45.6601 103.751 44.7437 103.751 43.494C103.751 42.3469 103.336 41.3856 102.244 41.3856C101.153 41.3856 100.763 42.3213 100.763 43.4812Z" fill="#343741"/>
<path d="M105.882 46.3906V40.6423H107.207C109.143 44.3463 109.435 44.9039 109.526 45.173H109.539C109.48 44.4617 109.474 43.5261 109.474 42.5904V40.6423H110.422V46.3906H109.162C107.09 42.3405 106.889 41.9176 106.791 41.6933H106.785C106.824 42.4238 106.83 43.4107 106.83 44.4361V46.3906H105.882Z" fill="#343741"/>
<path d="M116.314 46.3906H115.547C115.508 46.2112 115.482 45.9549 115.469 45.6665C115.17 46.2689 114.586 46.4739 113.819 46.4739C112.293 46.4739 111.513 45.2115 111.513 43.5453C111.513 41.8791 112.436 40.559 114.125 40.559C115.463 40.559 116.171 41.2831 116.327 42.2636H115.313C115.183 41.8086 114.878 41.3856 114.066 41.3856C112.988 41.3856 112.572 42.3725 112.572 43.5517C112.572 44.7308 112.994 45.6537 114.034 45.6537C115.073 45.6537 115.287 44.9615 115.287 44.1156V44.0836H113.969V43.212H116.307V46.3842L116.314 46.3906Z" fill="#343741"/>
<path d="M120.62 40.6423V46.3906H119.594V40.6423H120.62Z" fill="#343741"/>
<path d="M121.991 46.3906V40.6423H123.316C125.251 44.3463 125.544 44.9039 125.634 45.173H125.647C125.589 44.4617 125.583 43.5261 125.583 42.5904V40.6423H126.531V46.3906H125.271C123.199 42.3405 122.997 41.9176 122.9 41.6933H122.893C122.932 42.4238 122.939 43.4107 122.939 44.4361V46.3906H121.991Z" fill="#343741"/>
<path d="M128.954 41.4882H127.33V40.6423H131.617V41.4882H129.993V46.3906H128.954V41.4882Z" fill="#343741"/>
<path d="M135.949 43.8144H133.384V45.5511H136.209L136.079 46.3906H132.377V40.6423H136.06V41.4882H133.384V42.9685H135.949V43.8144Z" fill="#343741"/>
<path d="M138.112 43.9362V46.3906H137.099V40.6423H139.366C140.444 40.6423 141.204 41.1678 141.204 42.1739C141.204 42.9749 140.756 43.3466 140.282 43.5197C140.873 43.7311 141.094 44.1861 141.094 44.9295V45.0641C141.094 45.5832 141.12 46.0702 141.172 46.397H140.171C140.087 46.1599 140.067 45.7242 140.067 45.0513V44.9103C140.067 44.199 139.807 43.9362 138.976 43.9362H138.106H138.112ZM138.112 43.1223H139.06C139.691 43.1223 140.178 42.9493 140.178 42.2572C140.178 41.6933 139.775 41.4561 139.229 41.4561H138.112V43.1223Z" fill="#343741"/>
<path d="M142.295 46.3906V40.6423H143.62C145.556 44.3463 145.848 44.9039 145.939 45.173H145.952C145.894 44.4617 145.887 43.5261 145.887 42.5904V40.6423H146.836V46.3906H145.575C143.503 42.3405 143.302 41.9176 143.205 41.6933H143.198C143.237 42.4238 143.244 43.4107 143.244 44.4361V46.3906H142.295Z" fill="#343741"/>
<path d="M149.05 44.8975L148.589 46.397H147.576C147.764 45.8395 149.187 41.2767 149.395 40.6487H150.72L152.629 46.397H151.545L151.051 44.8975H149.05ZM150.837 44.0516C150.427 42.7763 150.155 41.9432 150.031 41.4369H150.018C149.869 42.0906 149.59 42.9813 149.252 44.0516H150.83H150.837Z" fill="#343741"/>
<path d="M153.792 41.4882H152.168V40.6423H156.455V41.4882H154.831V46.3906H153.792V41.4882Z" fill="#343741"/>
<path d="M158.248 40.6423V46.3906H157.222V40.6423H158.248Z" fill="#343741"/>
<path d="M164.451 43.4876C164.451 45.141 163.652 46.4739 161.859 46.4739C160.067 46.4739 159.346 45.141 159.346 43.4812C159.346 42.0329 160.132 40.5654 161.937 40.5654C163.646 40.5654 164.451 41.9047 164.451 43.4876ZM160.411 43.4812C160.411 44.6988 160.905 45.6601 161.905 45.6601C162.983 45.6601 163.399 44.7437 163.399 43.494C163.399 42.3469 162.983 41.3856 161.892 41.3856C160.801 41.3856 160.411 42.3213 160.411 43.4812Z" fill="#343741"/>
<path d="M165.529 46.3906V40.6423H166.854C168.79 44.3463 169.082 44.9039 169.173 45.173H169.186C169.128 44.4617 169.121 43.5261 169.121 42.5904V40.6423H170.07V46.3906H168.81C166.738 42.3405 166.536 41.9176 166.439 41.6933H166.432C166.478 42.4238 166.478 43.4107 166.478 44.4361V46.3906H165.529Z" fill="#343741"/>
<path d="M172.291 44.8975L171.83 46.397H170.817C171.005 45.8395 172.428 41.2767 172.635 40.6487H173.96L175.87 46.397H174.785L174.292 44.8975H172.291ZM174.077 44.0516C173.668 42.7763 173.395 41.9432 173.272 41.4369H173.259C173.11 42.0906 172.83 42.9813 172.492 44.0516H174.071H174.077Z" fill="#343741"/>
<path d="M176.624 40.6423H177.65V45.5511H180.319L180.196 46.3906H176.617V40.6423H176.624Z" fill="#343741"/>
<path d="M183.496 44.8975L183.035 46.397H182.021C182.21 45.8395 183.632 41.2767 183.84 40.6487H185.165L187.075 46.397H185.99L185.496 44.8975H183.496ZM185.282 44.0516C184.873 42.7763 184.6 41.9432 184.477 41.4369H184.464C184.314 42.0906 184.035 42.9813 183.697 44.0516H185.275H185.282Z" fill="#343741"/>
<path d="M192.154 44.6283C191.992 45.5832 191.349 46.4739 189.894 46.4739C188.101 46.4739 187.445 45.1666 187.445 43.5004C187.445 41.8342 188.257 40.559 189.939 40.559C191.433 40.559 192.044 41.4882 192.122 42.4046H191.108C190.978 41.8599 190.732 41.3856 189.907 41.3856C188.874 41.3856 188.504 42.3982 188.504 43.494C188.504 44.5899 188.835 45.6537 189.913 45.6537C190.725 45.6537 190.998 45.1282 191.134 44.6283H192.148H192.154Z" fill="#343741"/>
<path d="M194.07 44.8975L193.609 46.397H192.596C192.784 45.8395 194.207 41.2767 194.415 40.6487H195.74L197.649 46.397H196.564L196.071 44.8975H194.07ZM195.856 44.0516C195.447 42.7763 195.174 41.9432 195.051 41.4369H195.038C194.889 42.0906 194.609 42.9813 194.272 44.0516H195.85H195.856Z" fill="#343741"/>
<path d="M198.403 40.6423H200.384C202.053 40.6423 203.079 41.6612 203.079 43.3915C203.079 45.2628 202.066 46.3906 200.319 46.3906H198.396V40.6423H198.403ZM199.435 45.5832H200.299C201.436 45.5832 202.014 44.7757 202.014 43.4107C202.014 42.2252 201.423 41.4626 200.312 41.4626H199.435V45.5832Z" fill="#343741"/>
<path d="M207.73 43.8144H205.164V45.5511H207.99L207.86 46.3906H204.158V40.6423H207.841V41.4882H205.164V42.9685H207.73V43.8144Z" fill="#343741"/>
<path d="M213.576 44.1413C213.576 43.1352 213.589 41.988 213.615 41.36H213.576C213.31 42.4943 212.615 44.7565 212.076 46.397H211.173C210.77 45.0256 210.055 42.4943 209.802 41.3472H209.763C209.809 42.0137 209.835 43.2761 209.835 44.263V46.397H208.886V40.6487H210.426C210.906 42.1162 211.517 44.2374 211.692 45.0833H211.705C211.829 44.404 212.589 42.129 213.089 40.6487H214.576V46.397H213.582V44.1477L213.576 44.1413Z" fill="#343741"/>
<path d="M217.051 46.3906V44.1861C217.051 44.122 217.038 44.0644 217.006 44.0131L215.141 40.6423H216.304C216.739 41.5202 217.363 42.725 217.616 43.2313C218.019 42.411 218.519 41.4626 218.928 40.6423H220.006L218.123 44.0067C218.09 44.058 218.077 44.0964 218.077 44.1733V46.397H217.051V46.3906Z" fill="#343741"/>
<path d="M70.4883 54.4973L70.0271 55.9969H69.0139C69.2022 55.4393 70.6247 50.8765 70.8326 50.2485H72.1576L74.0673 55.9969H72.9826L72.4889 54.4973H70.4883ZM72.2746 53.6514C71.8653 52.3761 71.5925 51.543 71.4691 51.0367H71.4561C71.3067 51.6904 71.0274 52.5812 70.6897 53.6514H72.2681H72.2746Z" fill="#343741"/>
<path d="M79.2441 55.9969H78.4777C78.4387 55.8174 78.4127 55.5611 78.3997 55.2727C78.101 55.8751 77.5164 56.0802 76.7499 56.0802C75.2235 56.0802 74.444 54.8177 74.444 53.1515C74.444 51.4853 75.3664 50.1652 77.0552 50.1652C78.3932 50.1652 79.1012 50.8893 79.2571 51.8698H78.2439C78.1139 51.4148 77.8087 50.9919 76.9967 50.9919C75.9185 50.9919 75.5028 51.9788 75.5028 53.1579C75.5028 54.3371 75.925 55.2599 76.9643 55.2599C78.0035 55.2599 78.2179 54.5678 78.2179 53.7219V53.6898H76.8993V52.8183H79.2377V55.9905L79.2441 55.9969Z" fill="#343741"/>
<path d="M81.5306 54.4973L81.0694 55.9969H80.0561C80.2445 55.4393 81.667 50.8765 81.8748 50.2485H83.1999L85.1095 55.9969H84.0248L83.5311 54.4973H81.5306ZM83.3168 53.6514C82.9076 52.3761 82.6348 51.543 82.5114 51.0367H82.4984C82.349 51.6904 82.0697 52.5812 81.7319 53.6514H83.3103H83.3168Z" fill="#343741"/>
<path d="M86.8957 50.2485V55.9969H85.8694V50.2485H86.8957Z" fill="#343741"/>
<path d="M88.2663 55.9969V50.2485H89.5914C91.527 53.9526 91.8193 54.5101 91.9102 54.7793H91.9232C91.8648 54.0679 91.8583 53.1323 91.8583 52.1967V50.2485H92.8066V55.9969H91.5465C89.4744 51.9467 89.2731 51.5238 89.1757 51.2995H89.1692C89.2081 52.03 89.2146 53.0169 89.2146 54.0423V55.9969H88.2663Z" fill="#343741"/>
<path d="M94.7422 54.3243C94.8397 54.9202 95.2359 55.2727 95.8854 55.2727C96.535 55.2727 96.8727 54.9651 96.8727 54.4781C96.8727 53.9141 96.5609 53.6834 95.6516 53.4207C94.346 53.049 93.8848 52.6004 93.8848 51.7737C93.8848 50.7612 94.6903 50.1716 95.7945 50.1716C97.1455 50.1716 97.7171 50.8958 97.7821 51.7801H96.7688C96.6909 51.2995 96.4375 50.9598 95.7815 50.9598C95.2034 50.9598 94.9176 51.229 94.9176 51.6712C94.9176 52.139 95.2164 52.2928 96.0803 52.5427C97.5482 52.9721 97.925 53.5424 97.925 54.3563C97.925 55.2983 97.2819 56.0674 95.84 56.0674C94.5928 56.0674 93.8004 55.4329 93.7289 54.3243H94.7487H94.7422Z" fill="#343741"/>
<path d="M99.9061 51.0944H98.2822V50.2485H102.569V51.0944H100.945V55.9969H99.9061V51.0944Z" fill="#343741"/>
<path d="M110.006 54.2345C109.844 55.1894 109.201 56.0802 107.746 56.0802C105.953 56.0802 105.297 54.7729 105.297 53.1067C105.297 51.4405 106.109 50.1652 107.792 50.1652C109.285 50.1652 109.896 51.0944 109.974 52.0108H108.961C108.831 51.4661 108.584 50.9919 107.759 50.9919C106.726 50.9919 106.356 52.0044 106.356 53.1003C106.356 54.1961 106.687 55.2599 107.766 55.2599C108.577 55.2599 108.85 54.7344 108.987 54.2345H110H110.006Z" fill="#343741"/>
<path d="M115.872 53.0938C115.872 54.7472 115.073 56.0802 113.28 56.0802C111.487 56.0802 110.766 54.7472 110.766 53.0874C110.766 51.6391 111.552 50.1716 113.358 50.1716C115.066 50.1716 115.872 51.511 115.872 53.0938ZM111.832 53.0874C111.832 54.305 112.325 55.2663 113.326 55.2663C114.404 55.2663 114.82 54.3499 114.82 53.1003C114.82 51.9531 114.404 50.9919 113.313 50.9919C112.221 50.9919 111.832 51.9275 111.832 53.0874Z" fill="#343741"/>
<path d="M117.963 53.5424V55.9969H116.95V50.2485H119.217C120.295 50.2485 121.055 50.774 121.055 51.7801C121.055 52.5812 120.607 52.9529 120.133 53.1259C120.724 53.3374 120.945 53.7924 120.945 54.5357V54.6703C120.945 55.1894 120.971 55.6764 121.023 56.0033H120.022C119.938 55.7662 119.918 55.3304 119.918 54.6575V54.5165C119.918 53.8052 119.659 53.5424 118.827 53.5424H117.957H117.963ZM117.963 52.7286H118.912C119.542 52.7286 120.029 52.5555 120.029 51.8634C120.029 51.2995 119.626 51.0624 119.081 51.0624H117.963V52.7286Z" fill="#343741"/>
<path d="M123.16 53.5424V55.9969H122.146V50.2485H124.413C125.492 50.2485 126.252 50.774 126.252 51.7801C126.252 52.5812 125.803 52.9529 125.329 53.1259C125.92 53.3374 126.141 53.7924 126.141 54.5357V54.6703C126.141 55.1894 126.167 55.6764 126.219 56.0033H125.219C125.134 55.7662 125.115 55.3304 125.115 54.6575V54.5165C125.115 53.8052 124.855 53.5424 124.024 53.5424H123.153H123.16ZM123.16 52.7286H124.108C124.738 52.7286 125.225 52.5555 125.225 51.8634C125.225 51.2995 124.823 51.0624 124.277 51.0624H123.16V52.7286Z" fill="#343741"/>
<path d="M128.304 50.2485V53.9077C128.304 54.6447 128.538 55.2599 129.486 55.2599C130.435 55.2599 130.642 54.6703 130.642 53.9013V50.2421H131.682V53.9269C131.682 55.1317 131.169 56.0802 129.46 56.0802C127.752 56.0802 127.271 55.215 127.271 53.9526V50.2485H128.304Z" fill="#343741"/>
<path d="M132.981 50.2485H135.059C136.151 50.2485 137.06 50.806 137.06 51.9275C137.06 53.049 136.196 53.6962 134.962 53.6962H134.014V56.0033H132.981V50.2549V50.2485ZM134.014 52.8824H134.903C135.579 52.8824 136.014 52.6388 136.014 51.9467C136.014 51.3315 135.572 51.0624 134.929 51.0624H134.007V52.8824H134.014Z" fill="#343741"/>
<path d="M139.19 51.0944H137.567V50.2485H141.854V51.0944H140.23V55.9969H139.19V51.0944Z" fill="#343741"/>
<path d="M143.646 50.2485V55.9969H142.62V50.2485H143.646Z" fill="#343741"/>
<path d="M149.849 53.0938C149.849 54.7472 149.05 56.0802 147.258 56.0802C145.465 56.0802 144.744 54.7472 144.744 53.0874C144.744 51.6391 145.53 50.1716 147.336 50.1716C149.044 50.1716 149.849 51.511 149.849 53.0938ZM145.809 53.0874C145.809 54.305 146.303 55.2663 147.303 55.2663C148.381 55.2663 148.797 54.3499 148.797 53.1003C148.797 51.9531 148.381 50.9919 147.29 50.9919C146.199 50.9919 145.809 51.9275 145.809 53.0874Z" fill="#343741"/>
<path d="M150.928 55.9969V50.2485H152.253C154.188 53.9526 154.481 54.5101 154.572 54.7793H154.585C154.526 54.0679 154.52 53.1323 154.52 52.1967V50.2485H155.468V55.9969H154.208C152.136 51.9467 151.934 51.5238 151.837 51.2995H151.831C151.869 52.03 151.876 53.0169 151.876 54.0423V55.9969H150.928Z" fill="#343741"/>
<path d="M53.4774 0V52.7478H0.0135498V56.1827H56.9589V0H53.4774Z" fill="#474C55"/>
<path d="M6.28107 65.8851H2.73457V60.989H0.155884V72.0179H2.73457V67.6538H6.28107V72.0179H8.85975V60.989H6.28107V65.8851Z" fill="#474C55"/>
<path d="M26.8001 72.0179H29.3788V67.5064H33.3085V72.0179H35.8872V60.989H26.8001V72.0179ZM33.3085 62.7577V65.7377H29.3788V62.7577H33.3085Z" fill="#474C55"/>
<path d="M37.4526 72.0179H40.0313V67.5064H43.961V72.0179H46.5397V60.989H37.4526V72.0179ZM43.961 62.7577V65.7377H40.0313V62.7577H43.961Z" fill="#474C55"/>
<path d="M56.8155 62.7577V60.989H48.5923V72.0179H56.8155V70.2492H51.171V62.7577H56.8155Z" fill="#474C55"/>
<path d="M23.8382 60.989H21.2595V72.0179H23.8382V60.989Z" fill="#474C55"/>
<path d="M20.2592 60.989H17.1609L13.8612 64.9686V60.989H11.0292V72.0179H13.8612V68.5317L14.2899 68.0383L17.2454 72.0179H20.2657L15.9463 66.135L20.2592 60.989Z" fill="#474C55"/>
<path d="M30.1063 31.145H25.7933V34.3812H30.1063V31.145Z" fill="#8D0034"/>
<path d="M30.1063 25.1723H25.7933V28.0497H30.1063V25.1723Z" fill="#8D0034"/>
<path d="M3.2607 42.5135V5.4728H26.1506V3.00555H29.736V5.4728H50.2811V0H0V42.5135H3.2607Z" fill="#8D0034"/>
<path d="M30.1063 19.9366H25.7933V22.0771H30.1063V19.9366Z" fill="#8D0034"/>
<path d="M6.39799 8.56805V42.5135V45.6408H0V49.6076H50.2811V8.56805H6.39799ZM17.726 45.6216H9.60673V42.5263H14.5822V39.1299H17.7195V45.628L17.726 45.6216ZM25.7933 45.6216H22.656V39.1234H25.7933V45.6216ZM33.2436 45.6216H30.1063V39.1234H33.2436V45.6216ZM47.2542 45.6216H38.8556V39.1234H41.9929V42.5199H47.2542V45.6152V45.6216ZM47.2542 19.9366H33.2436V22.077H45.9421V28.0497H47.2542V31.145H45.9421V37.4765H9.61323V34.3812H22.656V31.145H9.61323V28.0497H22.656V25.1723H9.61323V22.077H22.656V19.9366H9.61323V16.8413H22.656V14.5471H9.58724V11.4518H25.7933V16.8413H30.1063V11.4518H45.9616V14.5471H33.2436V16.8413H47.2542V19.9366Z" fill="#8D0034"/>
<path d="M42.8049 25.1723H33.2436V28.0497H42.8049V25.1723Z" fill="#8D0034"/>
<path d="M42.8049 31.145H33.2436V34.3812H42.8049V31.145Z" fill="#8D0034"/>
</g>
<defs>
<clipPath id="clip0_295_1845">
<rect width="220" height="72.0179" fill="white"/>
</clipPath>
</defs>
</svg>
